<svg xmlns="http://www.w3.org/2000/svg" width="154" height="134" fill="none"><path fill="#FFFBF8" stroke="#002484" stroke-linejoin="round" stroke-width=".25" d="M136.22 87.47 68.64 48.46V1l67.58 39.02v47.45Z"/><path stroke="#F57118" stroke-miterlimit="10" stroke-width=".25" d="m76.4 45.09 2.27-8.2 5.87 8.38 9.77-18.21 11.43 20.95 3.07 13.31 7.98-.11 15.95 2.15"/><path fill="#F57118" d="M77.12 45.51c0 .43-.33.59-.73.36-.4-.23-.73-.77-.73-1.2 0-.43.33-.59.73-.36.4.23.73.77.73 1.2ZM79.4 37.31c0 .43-.33.59-.73.36-.4-.23-.73-.77-.73-1.2 0-.43.33-.59.73-.36.4.23.73.77.73 1.2ZM85.32 45.92c0 .43-.33.59-.73.36-.4-.23-.73-.77-.73-1.2 0-.43.33-.59.73-.36.4.23.73.77.73 1.2ZM95.65 27.84c0 .8-.6 1.1-1.34.67-.74-.43-1.34-1.42-1.34-2.22 0-.8.6-1.1 1.34-.67.74.43 1.34 1.42 1.34 2.22ZM106.53 48.23c0 .43-.33.59-.73.36-.4-.23-.73-.77-.73-1.2 0-.43.33-.59.73-.36.4.23.73.77.73 1.2ZM133.46 63.78c0 .43-.33.59-.73.36-.4-.23-.73-.77-.73-1.2 0-.43.33-.59.73-.36.4.23.73.77.73 1.2ZM109.53 61.74c0 .43-.33.59-.73.36-.4-.23-.73-.77-.73-1.2 0-.43.33-.59.73-.36.4.23.73.77.73 1.2ZM117.39 61.62c0 .43-.33.59-.73.36-.4-.23-.73-.77-.73-1.2 0-.43.33-.59.73-.36.4.23.73.77.73 1.2Z"/><path fill="#FFFBF8" stroke="#002484" stroke-linejoin="round" stroke-width=".25" d="M68.79 48.39 1.01 87.72l67.63 39.09 67.58-39.09-67.43-39.33Z"/><path fill="#D0D8F1" stroke="#002484" stroke-linejoin="round" stroke-width=".25" d="m68.59 133.55 67.63-39.04v-6.79l-67.63 39.04v6.79Z"/><path fill="#123EB7" stroke="#002484" stroke-linejoin="round" stroke-width=".25" d="M68.64 133.55 1 94.51v-6.79l67.64 39.04v6.79Z"/><path fill="#EFF1FE" d="M59.33 59.1 13.19 85.9l21.86 12.67L77.1 73.42l31.82 18.4-50.4 28.9 5.18 2.98 54.99-32.02L77.53 68 35.62 93.04l-12.86-7.23 50.4-29.28-4.76-2.67-9.07 5.24Z"/><path fill="#000056" d="M141.186 54.58h-1.312v-5.696h2.504c1.392 0 2.288.736 2.28 1.912 0 1.168-.904 1.92-2.288 1.92h-1.184v1.864Zm0-4.688v1.816h1.08c.656 0 1.064-.36 1.064-.912s-.416-.904-1.064-.904h-1.08Zm5.57 4.688h-1.296v-5.696h1.84l1.496 4.048h.08l1.488-4.048h1.856v5.696h-1.296v-3.92h-.08l-1.464 3.92h-1.08l-1.464-3.92h-.08v3.92Z"/><path fill="#CCEDD3" d="m37.05 99.89 40.54-23.28 25.06 14.27-39.42 23.84-26.18-14.83Z"/><path fill="#002484" d="M34.68 70.94s-.39.51-.86.51-.86-.51-.86-.51v-4.49h1.72v4.49Z"/><path fill="#D5EDD7" d="M33.61 66.98c-3.85 0-6.99-4.29-6.99-9.57s5.34-12.63 6.7-12.63c1.23 0 7.27 7.3 7.27 12.63 0 5.33-3.13 9.57-6.99 9.57h.01Z"/><path fill="#002484" d="M33.33 44.9c1 0 7.14 6.98 7.14 12.51 0 2.54-.72 4.92-2.03 6.7-1.29 1.76-3.01 2.74-4.83 2.74-3.78 0-6.86-4.24-6.86-9.44 0-2.26 1.04-5.27 2.86-8.26 1.67-2.74 3.26-4.25 3.72-4.25Zm0-.25c-1.38 0-6.83 7.41-6.83 12.76s3.18 9.69 7.11 9.69 7.11-4.34 7.11-9.69-6.01-12.76-7.39-12.76Z"/><path fill="#CCEDD3" d="m27.19 85.34 8.3 4.58 41.54-24.1 43.27 24.87 6.66-3.57-52-29.28-47.77 27.5Z"/><path fill="#00208A" d="M99.28 97.69c.02-.09.07-.18.13-.23.15-.13.43-.33.71-.8.15-.26.73-1.05.73-1.05s.07-.01.32.16c.13.09.36-.4.36-.4s.04.03.07.1c.02.06.04.15.02.28-.03.18.03.47.07.66.02.1-.03.25-.12.32l-.42.32-.56.29-1.36.7c-.03-.05 0-.23.04-.36l.01.01Z"/><path fill="#063ABE" stroke="#00208A" stroke-linejoin="round" stroke-width=".16" d="m102.2 90.64.79.49s.27-.11.36-.36c.1-.25.08-.45.08-.45l-.74-.79-.49 1.11Z"/><path fill="#063ABE" stroke="#00208A" stroke-linejoin="round" stroke-width=".16" d="M102.1 93.25c-.03-.06-.03-.14 0-.23.06-.22.22-.62.21-1.09 0-.26.1-1.19.1-1.19s.06-.09.38-.34c.16-.13.12-.56.12-.56s.05-.04.12-.05c.05-.01.12 0 .17.06.08.08.28.1.43.1.08 0 .11.11.07.24l-.21.6-.36.76-.87 1.85c-.06.02-.12-.07-.16-.16v.01Z"/><path fill="#04005A" d="M102.39 81.5s-4.53 5.32-4.53 6.84c0 .9 3.31 2.98 3.31 2.98l.72-1.49s-1.72-1.36-1.64-1.77c.08-.41 4.24-5.77 4.38-6.43.14-.66-.59-1.25-.59-1.25l-1.66 1.11.01.01Z"/><path fill="#04005A" d="m96.84 88.71 5.38.85c.1.02.23-.11.29-.29.06-.18.02-.33-.09-.35l-5.38-.85c-.1-.02-.23.11-.29.29-.06.18-.02.33.09.35ZM96.11 90.88l5.24 1.52c.1.03.23-.09.3-.26.06-.17.03-.34-.07-.37l-5.24-1.52c-.1-.03-.23.09-.3.26-.06.17-.03.34.07.37ZM89.38 100.82c0-3.15 1.86-6.78 4.15-8.1 2.29-1.32 4.15.17 4.15 3.31 0 3.15-1.86 6.78-4.15 8.1-2.29 1.32-4.15-.17-4.15-3.31Zm.52-.3c0 2.75 1.63 4.05 3.63 2.9s3.63-4.33 3.63-7.09c0-2.75-1.63-4.05-3.63-2.9s-3.63 4.33-3.63 7.09Z"/><path fill="#04005A" stroke="#04005A" stroke-linejoin="round" stroke-width=".16" d="M98.01 96.1c.11-.06.19-.23.19-.38 0-3.55-2.1-5.23-4.68-3.74-1.11.64-2.18 1.8-3.02 3.27-.08.14-.09.32-.02.39.07.07.19.02.27-.13.77-1.35 1.76-2.41 2.77-3 2.37-1.37 4.29.17 4.29 3.43 0 .15.09.22.19.16h.01ZM102.37 93.32c0-3.15 1.86-6.78 4.15-8.1 2.29-1.32 4.15.17 4.15 3.31 0 3.15-1.86 6.78-4.15 8.1-2.29 1.32-4.15-.17-4.15-3.31Zm.52-.3c0 2.75 1.63 4.05 3.63 2.9s3.63-4.33 3.63-7.09c0-2.75-1.63-4.05-3.63-2.9s-3.63 4.33-3.63 7.09Z"/><path fill="#04005A" stroke="#04005A" stroke-linejoin="round" stroke-width=".16" d="M103.62 88.15s.09-.07.13-.14c.77-1.35 1.76-2.41 2.77-3 .86-.49 1.68-.63 2.39-.38.09.03.21-.07.27-.23.06-.16.04-.31-.05-.34-.77-.27-1.67-.13-2.61.41-1.11.64-2.18 1.8-3.02 3.27-.08.14-.09.32-.02.39.04.04.09.04.15 0l-.01.02Z"/><path fill="#063ABE" stroke="#00208A" stroke-linejoin="round" stroke-width=".16" d="M106.52 90.34s.05-.06.05-.1c0-.04-.02-.06-.05-.05l-5.71 2.93s-.05.06-.06.1c0 .04.02.06.05.05l5.71-2.93h.01Z"/><path fill="#00208A" d="m100.73 95.37 5.79-3.7s.05-.07.05-.11c0-.04.1-1.39.08-1.37l-5.84 2.86s-.14 2.24-.13 2.28c0 .04.03.06.05.04Z"/><path fill="#063ABE" stroke="#00208A" stroke-linejoin="round" stroke-width=".16" d="M101.03 93.97c.06-.03.11-.11.14-.2l3.57-10.86c.04-.13.02-.25-.06-.27-.08-.02-.18.08-.22.21l-3.57 10.86c-.04.13-.02.25.06.27.03 0 .05 0 .08-.02v.01Z"/><path fill="#063ABE" stroke="#00208A" stroke-linejoin="round" stroke-width=".16" d="M106.52 91.1s.04-.03.06-.06c.06-.09.08-.21.05-.27l-2.87-5.14c-.04-.06-.12-.05-.18.04s-.08.21-.05.27l2.87 5.14s.07.05.11.02h.01ZM100.81 95.4c.47-.27.85-1.02.85-1.67 0-.65-.38-.95-.85-.68-.47.27-.85 1.02-.85 1.67 0 .65.38.95.85.68Z"/><path fill="#00208A" d="M101.56 93.79c0 .57-.33 1.22-.75 1.46s-.75-.03-.75-.6.33-1.22.75-1.46.75.03.75.6Z"/><path fill="#063ABE" stroke="#00208A" stroke-linejoin="round" stroke-width=".16" d="m105.49 81.96-1.26.73c-.09.05-.17.2-.17.33v.28c0 .13.08.19.17.14l1.6-.92c.12-.07.21-.3.15-.42-.09-.19-.27-.26-.49-.13v-.01Z"/><path fill="#063ABE" d="M103.54 81.33c-.29.48-3.47 4.29-3.82 6.74-.37 2.6.86 7.74.86 7.74s.41.1 1.19-.35c0 0-.06-6.26.12-7.11.18-.85 3.1-2.59 4.16-4.42.14-.23-2.51-2.61-2.51-2.61v.01Z"/><path fill="#04005A" d="M97.74 84.96 93.38 98.4c-.04.13-.01.25.06.27.02 0 .05 0 .08-.02.06-.03.11-.11.14-.2l4.36-13.44"/><path fill="#04005A" d="M94 98.15c0 .37-.22.79-.48.94-.26.15-.48-.02-.48-.39s.22-.79.48-.94c.26-.15.48.02.48.39Z"/><path fill="#00208A" d="M106.52 91.74c.32-.19.59-.7.59-1.15 0-.45-.26-.66-.59-.47-.33.19-.59.7-.59 1.15 0 .45.26.66.59.47Z"/><path fill="#B66C23" stroke="#04005A" stroke-miterlimit="10" stroke-width=".16" d="M95.97 82.04c-.2-.01.05.29.16.4-.08.03-.22.07-.22.07s-.73 0-.8.13c-.05.1.29.13.5.19-.21.04-.48.11-.51.19-.03.1.27.1.49.11-.12.05-.22.1-.23.16-.03.15.61 0 .98-.06.37-.07.62-.28.62-.28l.41-.07.03-.67s-.59.23-.97.05c-.12-.08-.31-.2-.47-.21l.01-.01Z"/><path fill="#04005A" d="M102.98 74.91s-1-.09-1.48.45-1.05 4.23-1.66 4.86c-.95.98-2.91 1.8-2.91 1.8l.32 1.13c2.61-.94 3.18-1.28 3.92-1.85.74-.57 1.81-6.4 1.81-6.4v.01Z"/><path fill="#04005A" d="M101.17 76.82c.05 1.14.13 2.2.13 2.2-.04 2.2-.65 4.36-.65 4.36s.28.75 2.4 1.57c2.32.9 3.13-.94 3.13-.94s.08-1.64-.2-4.15l.06-2.91s.07-.38-.21-1.13c-.28-.75-1.77-1.7-1.77-1.7l-.23-.03-.82-.53"/><path fill="#B66C23" stroke="#04005A" stroke-miterlimit="10" stroke-width=".16" d="M104.13 73.36s-.1.55 0 .92-.54.7-1.13.67c-.59-.03-.54-.39-.56-.83-.02-.44 1.69-.76 1.69-.76Z"/><path fill="#B66C23" d="M103.4 74.16s-.58.42-.93.23c-.61-.34-.81-1.73-.55-2.55.26-.82 2.06-.57 2.06-.57l.24 2.06"/><path stroke="#04005A" stroke-miterlimit="10" stroke-width=".16" d="M103.4 74.16s-.58.42-.93.23c-.61-.34-.81-1.73-.55-2.55.26-.82 2.06-.57 2.06-.57l.24 2.06"/><path fill="#04005A" d="m103.96 72.65-.14.41-.18.08v-.98s-.24.35-.83.44c-.77.12-1.29-.47-1.29-.47s-.05-.63.7-.99c.45-.21 1.09-.64 1.72-.32.63.32.42.6.42.6s.61.25.15 1.48c-.21.56-.45.78-.45.78l.05-.86-.14-.18-.01.01Z"/><path fill="#B66C23" d="M103.81 72.92c.02.11.08.27.08.27s.12-.03.17-.07c.12-.08.18-.29.15-.47s-.16-.26-.28-.18c-.12.08-.15.27-.11.45h-.01Z"/><path fill="#04005A" d="m95.11 83.15 2.27 1.02.39 1.08.8-.48 2.08 1.04"/><path stroke="#04005A" stroke-linejoin="round" stroke-width=".16" d="m95.11 83.15 2.27 1.02.39 1.08.8-.48 2.08 1.04"/><path fill="#B66C23" stroke="#04005A" stroke-miterlimit="10" stroke-width=".16" d="M99.63 84.65c-.2.03.1.28.24.36-.07.05-.2.11-.2.11s-.72.13-.76.28c-.03.11.31.08.53.09-.2.08-.45.2-.46.28-.01.11.28.04.5.02-.11.07-.19.14-.19.2 0 .15.6-.11.95-.25s.55-.4.55-.4l.39-.14-.1-.66s-.54.34-.95.24c-.13-.05-.35-.13-.5-.11v-.02Z"/><path fill="#04005A" d="M105.29 76.38s-1 .11-1.36.73c-.36.62-.21 4.35-.69 5.1-.74 1.14-2.5 2.33-2.5 2.33l.53 1.05c2.37-1.43 2.87-1.87 3.49-2.58.62-.71.54-6.63.54-6.63h-.01Z"/><path fill="#002484" d="M22.8 73.84a.554.554 0 0 0-.37-.33c-.08-.02-.14 0-.17.04l-.61.69v-7.85h-1.42v12.85c0 .11.07.21.21.29.28.16.73.16 1 0 .14-.08.21-.19.21-.29v-3.93l1.14-1.28s.04-.1.02-.18l-.01-.01Z"/><path fill="#2EA339" d="M23.18 72.02c-.6 0-1.19-.1-1.75-.3-1.37-.48-2.5-.71-3.56-.71-.87 0-1.73-.52-2.2-1.32a2.17 2.17 0 0 1-.01-2.24.17.17 0 0 0 0-.14c-1.86-2.42-1.33-5.7-.22-7.96 1.28-2.59 3.41-4.27 5.42-4.27.92 0 1.8.34 2.6 1.01.59.5 1.44.84 2.33 1.21 1.5.62 3.06 1.26 3.59 2.66.4 1.04.18 2.4-.66 4.13a.09.09 0 0 0 0 .1c.7 1.75.51 3.56-.53 5.1-1.13 1.67-3.05 2.71-5.02 2.71l.01.02Z"/><path fill="#002484" d="M20.85 55.22c.89 0 1.74.33 2.52.98.61.51 1.46.86 2.37 1.23 1.48.61 3.01 1.24 3.53 2.59.39 1.01.17 2.33-.66 4.03-.03.06-.03.14 0 .2.68 1.71.5 3.48-.52 4.99-1.09 1.61-3.02 2.65-4.91 2.65-.59 0-1.16-.1-1.71-.29-1.38-.49-2.53-.71-3.6-.72-.82 0-1.66-.51-2.09-1.25-.23-.39-.53-1.19-.01-2.11.05-.09.04-.2-.02-.28-1.83-2.38-1.3-5.6-.21-7.83 1.26-2.55 3.34-4.2 5.31-4.2m0-.24c-4.52 0-8.73 7.98-5.3 12.44-1.02 1.79.59 3.74 2.32 3.74 1.2 0 2.38.3 3.52.7.59.21 1.19.3 1.79.3 3.75 0 7.34-3.79 5.66-7.98 3.13-6.44-3.07-6.29-5.3-8.16-.87-.73-1.78-1.04-2.68-1.04h-.01ZM10.27 85.66s-.39.51-.86.51-.86-.51-.86-.51v-4.49h1.72v4.49Z"/><path fill="#D5EDD7" d="M9.2 81.7c-3.85 0-6.99-4.29-6.99-9.57S7.55 59.5 8.91 59.5c1.23 0 7.27 7.3 7.27 12.63 0 5.33-3.13 9.57-6.99 9.57h.01Z"/><path fill="#002484" d="M8.92 59.62c1 0 7.14 6.98 7.14 12.51 0 2.54-.72 4.92-2.03 6.7-1.29 1.76-3.01 2.74-4.83 2.74-3.78 0-6.86-4.24-6.86-9.44 0-2.26 1.04-5.27 2.86-8.26 1.67-2.74 3.26-4.25 3.72-4.25Zm0-.25c-1.38 0-6.83 7.41-6.83 12.76s3.18 9.69 7.11 9.69 7.11-4.34 7.11-9.69-6.01-12.76-7.39-12.76Z"/><path fill="#000056" stroke="#000056" stroke-linejoin="round" stroke-width=".25" d="m44.98 74.9-.23-.05.19-.11-.11-.49-.23-.05.19-.11-.11-.48-.23-.06.2-.11-.11-.48-.24-.05.19-.12-.11-.48-.35-.08-10.89 6.3.11.49.24.05-.19.11.11.48.23.06-.2.11.11.48.23.05-.19.12.11.48.23.05-.19.12.11.48.36.08 10.88-6.3-.11-.49Z"/><path fill="#000056" d="M37.95 84.42s-.05-.2-.1-.24c-.05-.04-3.36-1.93-3.36-1.93l-.38.22 3.27 1.89.18.15"/><path fill="#000056" d="M37.92 84.32s-.04-.08-.07-.11c-.02-.03-.05-.05-.08-.07l-3.27-1.89-.9-3.99v-.02c0-.01-.02-.03-.03-.04-.02-.02-.05-.05-.08-.07-.11-.07-.28-.1-.35-.06l-.38.22s-.04.04-.03.07l.95 4.18v3.27l.51.3.38-.22v-2.22l2.49 1.44v2.67l.47.26.43-.19v-3.4s-.01-.09-.03-.14l-.01.01Z"/><path fill="#000056" d="m34.36 83.1.39.22v-.37l-.39-.23v.38ZM49 78.01s-.04-.08-.07-.11a.27.27 0 0 0-.08-.07l-3.27-1.89-.9-3.99v-.02c0-.01-.02-.03-.03-.04a.572.572 0 0 0-.08-.07c-.11-.07-.28-.1-.35-.06l-.38.22s-.04.04-.03.07l.95 4.18v.49l-9.89 5.73.39.22v.26l-.24.14v.37l.39.22.25-.14v.29l.39.22.25-.14v.29l.39.22.25-.14v.29l.39.22v-.37l.64-.02 9.96-5.73.22.13v2.67l.47.26.43-.19v-3.4s-.01-.09-.03-.14l-.02.03Z"/><path fill="#6A89D8" stroke="#00208A" stroke-linejoin="round" stroke-width=".25" d="M60.86 39.29c1.63-.94 3.27-1.17 4.51-.46l-2.58-1.5c-1.25-.71-2.88-.49-4.51.46-1.63.94-3.26 2.6-4.5 4.75-1.96 3.4-2.42 7.14-1.12 9.23l5.69 9.16 2.58 1.5-5.69-9.16c-1.3-2.09-.85-5.83 1.12-9.23 1.24-2.15 2.87-3.81 4.5-4.75Z"/><path fill="#fff" stroke="#00208A" stroke-linejoin="round" stroke-width=".25" d="M60.86 39.29c1.63-.94 3.27-1.17 4.51-.46 1.98 1.13 2.45 4.33 1.17 7.91l-5.61 15.68-5.69-9.16c-1.3-2.09-.85-5.83 1.12-9.23 1.24-2.15 2.87-3.81 4.5-4.75v.01Z"/><path fill="#EFF1FE" stroke="#002484" stroke-miterlimit="10" stroke-width=".25" d="M65.47 44.02c0 2.73-1.91 6.04-4.28 7.41-2.36 1.36-4.28.26-4.28-2.47 0-2.73 1.91-6.04 4.28-7.41 2.36-1.36 4.28-.26 4.28 2.47Z"/><path fill="#6A89D8" stroke="#00208A" stroke-linejoin="round" stroke-width=".25" d="M71.04 92.29c1.74-1.01 3.49-1.25 4.82-.49l-2.76-1.6c-1.33-.76-3.08-.52-4.82.49-1.74 1.01-3.48 2.78-4.81 5.07-2.1 3.63-2.58 7.63-1.19 9.86l6.07 9.78 2.76 1.6-6.07-9.78c-1.39-2.23-.9-6.23 1.19-9.86 1.33-2.3 3.07-4.07 4.81-5.07Z"/><path fill="#fff" stroke="#00208A" stroke-linejoin="round" stroke-width=".25" d="M71.04 92.29c1.74-1.01 3.49-1.25 4.82-.49 2.11 1.2 2.62 4.63 1.24 8.46l-6 16.75-6.07-9.78c-1.39-2.23-.9-6.23 1.19-9.86 1.33-2.3 3.07-4.07 4.81-5.07l.01-.01Z"/><path fill="#EFF1FE" stroke="#002484" stroke-miterlimit="10" stroke-width=".25" d="M75.97 97.33c0 2.91-2.05 6.46-4.57 7.91-2.52 1.46-4.57.28-4.57-2.64s2.05-6.46 4.57-7.91c2.52-1.46 4.57-.28 4.57 2.64Z"/></svg>
