<svg xmlns="http://www.w3.org/2000/svg" width="142" height="116" fill="none"><path fill="#D0D8F1" d="m127.16 76.22 10.09-5.84 4.57-2.64v7.07l-70.38 40.63v-6.99l15.39-8.9 10.08-5.83L107 87.88l10.08-5.83 10.08-5.83Z"/><path fill="#F48C45" d="m141.82 67.74-4.57 2.64-6.25-3.61 4.6-2.66 6.22 3.63Z"/><path fill="#D0D8F1" d="m137.25 70.38-10.09 5.84-.01-.01 4.93-2.85 5.17-2.98Z"/><path fill="#F48C45" d="m137.25 70.38-5.17 2.98-.02-.03-6.21-3.59 5.15-2.97 6.25 3.61Zm-1.65-6.27-4.6 2.66-5.59-3.22 4.64-2.68 5.55 3.24Z"/><path fill="#F48C45" d="m132.06 73.33.02.03-4.93 2.85-6.25-3.61 4.95-2.86 6.21 3.59ZM131 66.77l-5.15 2.97-5.59-3.22 5.15-2.97 5.59 3.22Zm-.95-5.9-4.64 2.68-6.22-3.59 4.67-2.7 6.19 3.61Z"/><path fill="#D0D8F1" d="m127.15 76.21.01.01-10.08 5.83-.03-.01 4.94-2.85 5.16-2.98Z"/><path fill="#F48C45" d="m127.15 76.21-5.16 2.98-.02-.03-6.22-3.59 5.15-2.97 6.25 3.61Zm-1.3-6.47-4.95 2.86-5.58-3.22 4.94-2.86 5.59 3.22Zm-6.66-9.78 6.22 3.59-5.15 2.97-6.22-3.59 5.15-2.97Z"/><path fill="#F48C45" d="m123.86 57.26-4.67 2.7-5.58-3.22 4.7-2.71 5.55 3.23Zm-1.89 21.9.02.03-4.94 2.85-6.25-3.61 4.95-2.86 6.22 3.59Zm-1.07-6.56-5.15 2.97-5.58-3.22 5.15-2.97 5.58 3.22Zm-.64-6.08-4.94 2.86-6.22-3.6 4.94-2.85 6.22 3.59Z"/><path fill="#F48C45" d="m113.61 56.74 5.58 3.22-5.15 2.97-5.58-3.22 5.15-2.97Zm-1.49-6.32 6.19 3.61-4.7 2.71-6.22-3.59 4.73-2.73Z"/><path fill="#D0D8F1" d="M117.08 82.05 107 87.88l-.03-.02 4.92-2.84 5.16-2.98.03.01Z"/><path fill="#F48C45" d="m110.8 78.43 6.25 3.61-5.16 2.98-.02-.03-6.22-3.59 5.15-2.97Zm4.95-2.86-4.95 2.86-5.58-3.23 4.95-2.85 5.58 3.22Zm-.43-6.19-5.15 2.97-6.22-3.59 5.15-2.98 6.22 3.6ZM108.46 59.71l5.58 3.22-4.94 2.85-5.58-3.22 4.94-2.85Zm-1.07-6.56 6.22 3.59-5.15 2.97-6.22-3.59 5.15-2.97Zm-.82-5.97 5.55 3.24-4.73 2.73-5.58-3.22 4.76-2.75Z"/><path fill="#FFFBF8" d="m111.87 84.99.02.03-4.92 2.84-6.25-3.61 4.93-2.85 6.22 3.59Z"/><path fill="#F48C45" d="m105.22 75.2 5.58 3.23-5.15 2.97-5.58-3.22 5.15-2.98Zm-1.27-6.44 6.22 3.59-4.95 2.85L99 71.61l4.95-2.85Zm5.15-2.98-5.15 2.98-5.58-3.23 5.15-2.97 5.58 3.22Zm-6.86-9.66 6.22 3.59-4.94 2.85-6.22-3.59 4.94-2.85Zm-.43-6.19 5.58 3.22-5.15 2.97-5.57-3.22 5.14-2.97Z"/><path fill="#D0D8F1" d="m106.97 87.86.03.02-10.09 5.84-.04-.03 4.93-2.85 5.17-2.98Z"/><path fill="#FFFBF8" d="m106.97 87.86-5.17 2.98-.02-.03-6.21-3.59 5.15-2.97 6.25 3.61Z"/><path fill="#F48C45" d="m106.57 47.18-4.76 2.75-6.21-3.59 4.79-2.77 6.18 3.61Z"/><path fill="#FFFBF8" d="m105.65 81.4-4.93 2.85-5.59-3.22 4.94-2.85 5.58 3.22Z"/><path fill="#F48C45" d="m105.22 75.2-5.15 2.98-6.22-3.59L99 71.61l6.22 3.59Zm-6.85-9.67 5.58 3.23L99 71.61l-5.58-3.22 4.95-2.86Zm5.15-2.97-5.15 2.97-6.22-3.59 5.15-2.97 6.22 3.59Zm-6.85-9.66 5.57 3.22-4.94 2.85-5.58-3.22 4.95-2.85Zm-1.07-6.56 6.21 3.59-5.14 2.97-6.22-3.59 5.15-2.97Z"/><path fill="#FFFBF8" d="m101.78 90.81.02.03-4.93 2.85-6.25-3.61 4.95-2.86 6.21 3.59Zm-1.06-6.56-5.15 2.97L89.98 84l5.15-2.97 5.59 3.22Z"/><path fill="#F48C45" d="m100.39 43.57-4.79 2.77-5.58-3.22 4.82-2.78 5.55 3.23Z"/><path fill="#FFFBF8" d="m93.85 74.59 6.22 3.59-4.94 2.85-6.22-3.59 4.94-2.85Z"/><path fill="#F48C45" d="m99 71.61-5.15 2.98-5.58-3.22 5.15-2.98L99 71.61Zm-.63-6.08-4.95 2.86-6.21-3.59 4.94-2.86 6.22 3.59Zm-1.07-6.56-5.15 2.97-5.57-3.22 5.14-2.97 5.58 3.22Z"/><path fill="#D0D8F1" d="m96.87 93.69.04.03-10.08 5.83-.06-.03 4.94-2.85 5.16-2.98Z"/><path fill="#FFFBF8" d="m96.87 93.69-5.16 2.98-.02-.03-6.22-3.59 5.15-2.97 6.25 3.61Z"/><path fill="#F48C45" d="m96.67 52.9-4.95 2.85-6.21-3.59 4.94-2.85 6.22 3.59Zm-1.07-6.56-5.15 2.97-5.58-3.22 5.15-2.97 5.58 3.22Z"/><path fill="#FFFBF8" d="m95.57 87.22-4.95 2.86-5.58-3.22L89.98 84l5.59 3.22Zm-6.66-9.78 6.22 3.59L89.98 84l-6.22-3.59 5.15-2.97Z"/><path fill="#F48C45" d="m88.65 36.73 6.19 3.61-4.82 2.78-6.22-3.59 4.85-2.8Zm-.38 34.64 5.58 3.22-4.94 2.85-5.57-3.22 4.93-2.85Zm5.15-2.98-5.15 2.98-6.22-3.6 5.16-2.97 6.21 3.59Z"/><path fill="#FFFBF8" d="m92.15 61.94-4.94 2.86-5.58-3.22 4.95-2.86 5.57 3.22Z"/><path fill="#F48C45" d="m91.72 55.75-5.14 2.97-6.22-3.59 5.15-2.97 6.21 3.59Z"/><path fill="#FFFBF8" d="m91.69 96.64.02.03-4.94 2.85-6.25-3.61 4.95-2.86 6.22 3.59Zm-1.07-6.56-5.15 2.97-5.58-3.22 5.15-2.97 5.58 3.22Z"/><path fill="#F48C45" d="m90.45 49.31-4.94 2.85-5.58-3.22 4.94-2.85 5.58 3.22Zm-.43-6.19-5.15 2.97-6.22-3.59 5.15-2.97 6.22 3.59Z"/><path fill="#FFFBF8" d="m89.98 84-4.94 2.86-6.22-3.59 4.94-2.86L89.98 84Zm-6.64-9.78 5.57 3.22-5.15 2.97-5.57-3.22 5.15-2.97Zm-.24-40.73 5.55 3.24-4.85 2.8-5.58-3.22 4.88-2.82Z"/><path fill="#F48C45" d="m82.05 67.77 6.22 3.6-4.93 2.85-6.22-3.59 4.93-2.86Z"/><path fill="#F48C45" d="m87.21 64.8-5.16 2.97-5.57-3.22 5.15-2.97 5.58 3.22Z"/><path fill="#D0D8F1" d="m86.83 99.55-15.39 8.9v-.05l-.03-.02 5.14-2.96 5.06-2.92 5.16-2.98.06.03Z"/><path fill="#FFFBF8" d="m80.52 95.91 6.25 3.61-5.16 2.98-.02-.03-6.22-3.59 5.15-2.97Z"/><path fill="#F48C45" d="m86.58 58.72-4.95 2.86-6.22-3.59 4.95-2.86 6.22 3.59Zm-1.07-6.56-5.15 2.97-5.58-3.22 5.15-2.97 5.58 3.22Z"/><path fill="#FFFBF8" d="m85.47 93.05-4.95 2.86-5.58-3.23 4.95-2.85 5.58 3.22Zm-.43-6.19-5.15 2.97-6.22-3.59 5.15-2.97 6.22 3.59Z"/><path fill="#F48C45" d="m84.87 46.09-4.94 2.85-6.22-3.59 4.94-2.85 6.22 3.59Z"/><path fill="#FFFBF8" d="m83.8 39.53-5.15 2.97-5.58-3.22 5.15-2.97 5.58 3.22Zm-5.61 37.66 5.57 3.22-4.94 2.86-5.58-3.22 4.95-2.86Z"/><path fill="#F4C09D" d="m83.34 74.22-5.15 2.97-6.22-3.59 5.15-2.97 6.22 3.59Z"/><path fill="#CCEDD3" d="m83.17 33.45-.07.04-5.95-3.47.03-.02 5.99 3.45Z"/><path fill="#CCEDD3" d="m83.1 33.49-4.88 2.82-5.96-3.44 4.89-2.85 5.95 3.47Z"/><path fill="#F48C45" d="m82.05 67.77-4.93 2.86-5.58-3.22 4.94-2.86 5.57 3.22Z"/><path fill="#F4C09D" d="m81.63 61.58-5.15 2.97-6.22-3.58 5.15-2.98 6.22 3.59Z"/><path fill="#FFFBF8" d="m81.59 102.47.02.03-5.06 2.92-.02-.04-6.21-3.59 5.05-2.91 6.22 3.59Z"/><path fill="#FFFBF8" d="m74.94 92.68 5.58 3.23-5.15 2.97-5.58-3.22 5.15-2.98Z"/><path fill="#F48C45" d="m80.36 55.13-4.95 2.86-5.58-3.22 4.95-2.86 5.58 3.22Zm-.43-6.19-5.15 2.97-6.22-3.59 5.15-2.97 6.22 3.59Zm-.04 40.89-4.95 2.85-6.22-3.59 4.95-2.85 6.22 3.59Z"/><path fill="#FFFBF8" d="m78.82 83.27-5.15 2.97-5.58-3.22 5.15-2.97 5.58 3.22Zm-5.75-43.99 5.58 3.22-4.94 2.85-5.58-3.22 4.94-2.85Z"/><path fill="#CCEDD3" d="m72.26 32.87 5.96 3.44-5.15 2.97-5.94-3.43 5.13-2.98Z"/><path fill="#FFFBF8" d="m78.19 77.19-4.95 2.86-6.22-3.59 4.95-2.86 6.22 3.59Z"/><path fill="#CCEDD3" d="M71.6 26.78 77.18 30l-.03.02-5.55-3.24Zm0 0 5.55 3.24-4.89 2.85-5.58-3.22 4.92-2.87Z"/><path fill="#F4C09D" d="m71.54 67.41 5.58 3.22-5.15 2.97-5.58-3.22 5.15-2.97Z"/><path fill="#FFFBF8" d="m76.53 105.38.02.04-5.14 2.96-6.16-3.55.09-.16 4.98-2.88 6.21 3.59Z"/><path fill="#F4C09D" d="m76.48 64.55-4.94 2.86-6.22-3.59 4.94-2.85 6.22 3.58Z"/><path fill="#FFFBF8" d="m75.41 57.99-5.15 2.98-5.58-3.23 5.15-2.97 5.58 3.22Zm-.04 40.89-5.05 2.91-5.58-3.22 5.05-2.91 5.58 3.22Z"/><path fill="#F4C09D" d="m74.94 92.68-5.15 2.98-6.22-3.59 5.15-2.98 6.22 3.59Z"/><path fill="#FFFBF8" d="m74.78 51.91-4.95 2.86-6.22-3.59 4.95-2.86 6.22 3.59Zm-1.07-6.56-5.15 2.97-5.57-3.22 5.14-2.97 5.58 3.22Zm-5.62 37.67 5.58 3.22-4.95 2.85-5.57-3.22 4.94-2.85Zm5.15-2.97-5.15 2.97-6.22-3.59 5.15-2.97 6.22 3.59Z"/><path fill="#CCEDD3" d="m67.13 35.85 5.94 3.43-4.94 2.85-5.92-3.42 4.92-2.86Zm-.45-6.2 5.58 3.22-5.13 2.98-5.57-3.22 5.12-2.98Z"/><path fill="#FFFBF8" d="m71.97 73.6-4.95 2.86-5.58-3.22 4.95-2.86 5.58 3.22Zm-.37-46.82-4.92 2.87-.01-.01 4.93-2.86Z"/><path fill="#F4C09D" d="m65.32 63.82 6.22 3.59-5.15 2.97-6.22-3.59 5.15-2.97Z"/><path fill="#123EB7" d="M71.44 115.44v.03l-.03-.02.03-.01Z"/><path fill="#D0D8F1" d="M71.44 108.45v6.99l-.03.01-.03-.01v-7.02l.06.03Z"/><path fill="#D0D8F1" d="M71.44 108.4v.05l-.06-.03v-.02l.03-.02.03.02Z"/><path fill="#123EB7" d="m71.41 108.38-.03.02v.02L18.06 77.59l6.19 3.57 5.61 3.24 6.19 3.57 5.6 3.23 6.2 3.58 5.6 3.24 6.2 3.57 5.6 3.24 6.16 3.55Z"/><path fill="#D0D8F1" d="m71.41 115.45-.03.02v-.03l.03.01Z"/><path fill="#123EB7" d="M71.38 108.42v7.02L1 74.81v-7.07h.01l7.29 4.21 9.76 5.64 53.32 30.83Z"/><path fill="#FFFBF8" d="m70.32 101.79-4.98 2.88-.09.16-5.6-3.24.06-.11 5.03-2.91 5.58 3.22Zm-5.64-44.05 5.58 3.23-4.94 2.85-5.58-3.22 4.94-2.86Zm5.15-2.97-5.15 2.97-6.22-3.59 5.15-2.97 6.22 3.59Zm-6.26 37.3 6.22 3.59-5.05 2.91-6.22-3.59 5.05-2.91ZM68.72 89.09l-5.15 2.98L58 88.85l5.15-2.98 5.57 3.22Z"/><path fill="#F4C09D" d="m68.56 48.32-4.95 2.86-5.57-3.22 4.95-2.86 5.57 3.22Z"/><path fill="#CCEDD3" d="m68.13 42.13-5.14 2.97-5.9-3.4 5.12-2.99 5.92 3.42Z"/><path fill="#F48C45" d="m61.87 79.43 6.22 3.59-4.94 2.85-6.22-3.59 4.94-2.85Z"/><path fill="#CCEDD3" d="m61.56 32.63 5.57 3.22-4.92 2.86-5.57-3.22 4.92-2.86Z"/><path fill="#F4C09D" d="m61.44 73.24 5.58 3.22-5.15 2.97-5.58-3.22 5.15-2.97Z"/><path fill="#FFFBF8" d="m66.67 29.64.01.01-5.12 2.98-.02-.01 5.13-2.98Zm-.28 40.74-4.95 2.86-6.22-3.59 4.95-2.86 6.22 3.59Z"/><path fill="#FFFBF8" d="m59.74 60.6 5.58 3.22-5.15 2.97-5.58-3.22 5.15-2.97Zm5 37.97-5.03 2.91-.06.11-6.2-3.57.09-.16 4.98-2.88 6.22 3.59Z"/><path fill="#F48C45" d="m64.68 57.74-4.94 2.86-6.22-3.6 4.94-2.85 6.22 3.59Zm-6.64-9.78 5.57 3.22-5.15 2.97-5.57-3.22 5.15-2.97Z"/><path fill="#FFFBF8" d="m58 88.85 5.57 3.22-5.05 2.91-5.57-3.22L58 88.85Z"/><path fill="#F48C45" d="M63.15 85.87 58 88.85l-6.22-3.59 5.15-2.98 6.22 3.59Z"/><path fill="#CCEDD3" d="m62.99 45.1-4.95 2.86-5.88-3.39 4.93-2.87 5.9 3.4Zm-.78-6.39-5.12 2.99-5.58-3.22 5.13-2.99 5.57 3.22Z"/><path fill="#FFFBF8" d="m56.29 76.21 5.58 3.22-4.94 2.85-5.58-3.22 4.94-2.85Zm5.27-43.58-4.92 2.86-.03-.01 4.93-2.86.02.01Z"/><path fill="#F48C45" d="m55.22 69.65 6.22 3.59-5.15 2.97-6.21-3.59 5.14-2.97Zm4.95-2.86-4.95 2.86-5.58-3.22 4.95-2.86 5.58 3.22Z"/><path fill="#F4C09D" d="m53.52 57 6.22 3.6-5.15 2.97-6.22-3.59L53.52 57Z"/><path fill="#FFFBF8" d="m58.52 94.98-4.98 2.88-.09.16-5.6-3.24.06-.11 5.04-2.91 5.57 3.22Z"/><path fill="#F48C45" d="M58.46 54.15 53.52 57l-5.58-3.22 4.95-2.85 5.57 3.22Z"/><path fill="#CCEDD3" d="m58.04 47.96-5.15 2.97-5.85-3.38 5.12-2.98 5.88 3.39Z"/><path fill="#F4C09D" d="m58 88.85-5.05 2.91-6.22-3.59 5.05-2.91L58 88.85Z"/><path fill="#CCEDD3" d="m51.51 38.48 5.58 3.22-4.93 2.87-5.57-3.22 4.92-2.87Z"/><path fill="#F48C45" d="m56.93 82.28-5.15 2.98-5.58-3.23 5.15-2.97 5.58 3.22Z"/><path fill="#FFFBF8" d="m56.64 35.49-5.13 2.99-.03-.02 5.13-2.98.03.01Zm-6.56 37.13 6.21 3.59-4.94 2.85-6.21-3.59 4.94-2.85Z"/><path fill="#F48C45" d="m49.64 66.43 5.58 3.22-5.14 2.97-5.58-3.22 5.14-2.97Z"/><path fill="#F4C09D" d="m54.59 63.57-4.95 2.86-6.22-3.6 4.2-2.42.75-.43 6.22 3.59ZM53.52 57l-5.15 2.98-5.58-3.22 5.15-2.98L53.52 57Z"/><path fill="#FFFBF8" d="m52.95 91.76-5.04 2.91-.06.11-6.2-3.58.09-.15 4.99-2.88 6.22 3.59Z"/><path fill="#CCEDD3" d="m52.89 50.93-4.95 2.85-5.83-3.36 4.93-2.87 5.85 3.38Zm-6.3-9.58 5.57 3.22-5.12 2.98-5.58-3.22 5.13-2.98Z"/><path fill="#FFFBF8" d="m46.2 82.03 5.58 3.23-5.05 2.91-5.58-3.22 5.05-2.92Zm5.28-43.57.03.02-4.92 2.87-.05-.03 4.94-2.86Zm-.13 40.6-5.15 2.97-6.22-3.58 5.16-2.98 6.21 3.59Z"/><path fill="#F4C09D" d="m50.08 72.62-4.94 2.85-5.59-3.22 4.95-2.85 5.58 3.22Z"/><path fill="#F48C45" d="m43.42 62.83 6.22 3.6-5.14 2.97-6.22-3.59 5.14-2.98Z"/><path fill="#F48C45" d="m42.79 56.76 5.58 3.22-.75.43-4.2 2.42-5.58-3.22 4.15-2.39.8-.46Zm-.68-6.34 5.83 3.36-5.15 2.98-10.47-6.05 1.76-2.08 2.46-1.43 5.57 3.22Z"/><path fill="#CCEDD3" d="m47.04 47.55-4.93 2.87-5.57-3.22 4.92-2.87 5.58 3.22Z"/><path fill="#F48C45" d="m46.73 88.17-4.99 2.88-.09.15-5.6-3.23.06-.11 5.04-2.91 5.58 3.22Z"/><path fill="#FFFBF8" d="m46.59 41.35-5.13 2.98-.06-.03 5.14-2.98.05.03Z"/><path fill="#F48C45" d="m46.2 82.03-5.05 2.92-6.22-3.59 5.05-2.91 6.22 3.58Z"/><path fill="#FFFBF8" d="m45.14 75.47-5.16 2.98-5.58-3.23 5.15-2.97 5.59 3.22Z"/><path fill="#F48C45" d="m44.5 69.4-4.95 2.85-6.21-3.59 4.94-2.85 6.22 3.59Z"/><path fill="#FFFBF8" d="m43.42 62.83-5.14 2.98-5.58-3.22 5.14-2.98 5.58 3.22Z"/><path fill="#CCEDD3" d="m32.32 50.71 10.47 6.05-.8.46-4.15 2.39-8.75-5.05 3.23-3.85Z"/><path fill="#FFFBF8" d="m41.46 44.33-4.92 2.87-.07-.04 4.93-2.86.06.03Z"/><path fill="#F48C45" d="m41.15 84.95-5.04 2.91-.06.11-6.19-3.57.09-.16 4.98-2.88 6.22 3.59Z"/><path fill="#FFFBF8" d="m34.4 75.22 5.58 3.23-5.05 2.91-5.58-3.22 5.05-2.92Z"/><path fill="#F48C45" d="m39.55 72.25-5.15 2.97-6.21-3.59 5.15-2.97 6.21 3.59Z"/><path fill="#FFFBF8" d="m32.7 62.59 5.58 3.22-4.94 2.85-5.58-3.22 4.94-2.85Z"/><path fill="#CCEDD3" d="m37.84 59.61-5.14 2.98-6.98-4.03 3.37-4 8.75 5.05Z"/><path fill="#FFFBF8" d="m36.54 47.2-2.46 1.43-1.76 2.08-.98-.57 5.13-2.98.07.04Zm-1.61 34.16-4.98 2.88-.09.16-5.61-3.24.06-.11 5.04-2.91 5.58 3.22Z"/><path fill="#F48C45" d="m34.4 75.22-5.05 2.92-6.21-3.59 5.05-2.92 6.21 3.59Z"/><path fill="#FFFBF8" d="m33.34 68.66-5.15 2.97-5.58-3.22 5.15-2.97 5.58 3.22Z"/><path fill="#CCEDD3" d="m25.72 58.56 6.98 4.03-4.94 2.85-5.27-3.04 3.23-3.84Z"/><path fill="#FFFBF8" d="m32.32 50.71-3.23 3.85-2.69-1.55 4.94-2.87.98.57Z"/><path fill="#F48C45" d="m23.14 74.55 6.21 3.59-5.04 2.91-.06.11-6.19-3.57.09-.16 4.99-2.88Z"/><path fill="#FFFBF8" d="m29.09 54.56-3.37 4-4.45-2.57 5.13-2.98 2.69 1.55Zm-.9 17.07-5.05 2.92-5.58-3.22 5.05-2.92 5.58 3.22Z"/><path fill="#CCEDD3" d="m27.76 65.44-5.15 2.97-3.49-2.01 3.37-4 5.27 3.04Z"/><path fill="#FFFBF8" d="m21.27 55.99 4.45 2.57-3.23 3.84-6.15-3.55 4.93-2.86Z"/><path fill="#F48C45" d="m23.14 74.55-4.99 2.88-.09.16-5.6-3.24.06-.11 5.04-2.91 5.58 3.22Z"/><path fill="#CCEDD3" d="m22.61 68.41-5.05 2.92-1.74-1.01 3.3-3.92 3.49 2.01Z"/><path fill="#FFFBF8" d="m16.34 58.85 6.15 3.55-3.37 4-7.92-4.57 5.14-2.98Z"/><path fill="#FFFBF8" d="m19.12 66.4-3.3 3.92-9.66-5.57 5.04-2.92 7.92 4.57Z"/><path fill="#123EB7" d="m12.46 74.35 5.6 3.24-9.76-5.64 4.16 2.4Z"/><path fill="#CCEDD3" d="m17.56 71.33-5.04 2.91 3.3-3.92 1.74 1.01Z"/><path fill="#F48C45" d="m15.82 70.32-3.3 3.92-.06.11-4.16-2.4-7.29-4.21 5.15-2.99 9.66 5.57Z"/><path stroke="#002484" stroke-linejoin="round" stroke-width=".25" d="m141.82 67.74-6.22-3.63-5.55-3.24-6.19-3.61-5.55-3.23-6.19-3.61-5.55-3.24-6.18-3.61-5.55-3.23-6.19-3.61-5.55-3.24m-11.5-6.71-4.93 2.86-5.13 2.98-4.93 2.86-5.13 2.98-4.94 2.86-5.14 2.98-4.93 2.86-5.13 2.98-4.94 2.87-5.13 2.98-4.93 2.86-5.14 2.98-5.04 2.92-5.15 2.99m70.37 47.7L1 74.81v-7.07h.01l7.29 4.21 4.16 2.4 5.6 3.24 6.19 3.57 5.61 3.24 6.19 3.57 5.6 3.23 6.2 3.58 5.6 3.24 6.2 3.57 5.6 3.24 6.16 3.55m.03 7.06v.03l-.03-.02"/><path stroke="#002484" stroke-linejoin="round" stroke-width=".25" d="M71.38 115.44v.03l.03-.02.03-.01 70.38-40.63v-7.07l-4.57 2.64-5.17 2.98-4.93 2.85-5.16 2.98-4.94 2.85-5.16 2.98-4.92 2.84-5.17 2.98-4.93 2.85-5.16 2.98-4.94 2.85-5.16 2.98-5.06 2.92-5.14 2.96-.03.02v7.04Z"/><path stroke="#002484" stroke-miterlimit="10" stroke-width=".25" d="m12.52 74.24 5.04-2.91 5.05-2.92 5.15-2.97 4.94-2.85 5.14-2.98 4.15-2.39.8-.46 5.15-2.98 4.95-2.85 5.15-2.97 4.95-2.86 5.14-2.97 4.94-2.85 5.15-2.97 4.88-2.82.07-.04L77.18 30l-5.58-3.22-4.92 2.87-5.12 2.98-4.92 2.86-5.13 2.99-4.92 2.87-5.13 2.98-4.92 2.87-2.46 1.43"/><path stroke="#002484" stroke-linejoin="round" stroke-width=".25" d="m94.97 40.26-.13.08-4.82 2.78-5.15 2.97-4.94 2.85-5.15 2.97-4.95 2.86-5.15 2.97-4.94 2.86-5.15 2.97-4.95 2.86-5.14 2.97-4.95 2.85-5.15 2.97-5.05 2.92-5.04 2.91m82.45-33.98-.19.11-4.76 2.75-5.14 2.97-4.95 2.85-5.14 2.97-4.95 2.86-5.15 2.97-4.94 2.86-5.15 2.97-4.95 2.86-5.15 2.97-4.94 2.85-5.15 2.97-5.05 2.92-5.04 2.91m82.45-33.98-.25.15-4.7 2.71-5.15 2.97-4.94 2.85-5.15 2.97-4.95 2.86-5.15 2.98-4.93 2.85-5.15 2.97-4.95 2.86-5.15 2.97-4.94 2.85L58 88.85l-5.05 2.91-5.04 2.91m11.8 6.81 5.03-2.91 5.05-2.91 5.15-2.98 4.95-2.85 5.15-2.97L89.98 84l5.15-2.97 4.94-2.85 5.15-2.98 4.95-2.85 5.15-2.97 4.94-2.86 5.15-2.97 4.64-2.68.31-.18"/><path stroke="#002484" stroke-linejoin="round" stroke-width=".25" d="m61.28 32.47.26.15.02.01 5.57 3.22 5.94 3.43 5.58 3.22 6.22 3.59 5.58 3.22 6.22 3.59 5.57 3.22 6.22 3.59 5.58 3.22 6.22 3.59 5.59 3.22 6.21 3.59m-10.09 5.83-6.22-3.59-5.58-3.22-6.22-3.59-5.58-3.23-6.22-3.59-5.57-3.22-6.22-3.59-5.58-3.22-6.22-3.59-5.57-3.22-5.9-3.4-5.58-3.22-.03-.02-.29-.17m60.68 46.7-6.22-3.59-5.58-3.22-6.22-3.59-5.58-3.22-6.22-3.6-5.57-3.22-6.22-3.58-5.58-3.23-6.22-3.59-5.57-3.22-5.85-3.38-5.58-3.22-.06-.03-.31-.18m60.69 46.69-6.21-3.59L89.98 84l-6.22-3.59-5.57-3.22-6.22-3.59-5.58-3.22-6.22-3.59-5.58-3.22-6.22-3.59-5.58-3.22-10.47-6.05-.98-.57-.34-.19m60.69 46.69-6.22-3.59-5.58-3.22-6.22-3.59-5.58-3.22-6.22-3.59-5.58-3.22-6.21-3.59-5.58-3.22-6.22-3.59-5.58-3.22-6.98-4.03-4.45-2.57-.36-.21m60.68 46.69-6.22-3.59-5.58-3.22-6.22-3.59L58 88.85l-6.22-3.59-5.58-3.23-6.22-3.58-5.58-3.23-6.21-3.59-5.58-3.22-3.49-2.01-7.92-4.57-.39-.23"/><path stroke="#002484" stroke-linejoin="round" stroke-width=".25" d="m18.15 77.43 4.99-2.88 5.05-2.92 5.15-2.97 4.94-2.85 5.14-2.98 4.2-2.42.75-.43L53.52 57l4.94-2.85 5.15-2.97 4.95-2.86 5.15-2.97 4.94-2.85 5.15-2.97 4.85-2.8.15-.09-11.57-6.67-.05.03-.03.02-4.89 2.85-5.13 2.98-4.92 2.86-5.12 2.99-4.93 2.87-5.12 2.98-4.93 2.87-2.4 1.4m60.89-8.37-.21.12-4.79 2.77-5.15 2.97-4.94 2.85-5.15 2.97-4.95 2.86-5.15 2.98-4.94 2.85-5.15 2.97-4.95 2.86-5.14 2.97-4.94 2.85-5.16 2.98-5.05 2.91-4.98 2.88m82.44-33.98-.27.16-4.73 2.73-5.15 2.97-4.94 2.85-5.15 2.97-4.94 2.86-5.16 2.97-4.93 2.86-5.15 2.97-4.95 2.86-5.15 2.97-4.94 2.85-5.15 2.98-5.05 2.91-4.99 2.88m82.45-33.98-.33.19-4.67 2.7-5.15 2.97-4.94 2.85-5.15 2.98L99 71.61l-5.15 2.98-4.94 2.85-5.15 2.97-4.94 2.86-5.15 2.97-4.95 2.85-5.15 2.98-5.05 2.91-4.98 2.88m11.8 6.81 4.98-2.88 5.05-2.91 5.15-2.97 4.95-2.86 5.15-2.97 4.95-2.86 5.15-2.97 4.93-2.85 5.15-2.97 4.95-2.86 5.15-2.97 4.95-2.86 5.15-2.97 4.6-2.66.39-.22"/><path stroke="#002484" stroke-linejoin="round" stroke-width=".25" d="m66.53 29.56.14.08.01.01 5.58 3.22 5.96 3.44 5.58 3.22 6.22 3.59 5.58 3.22 6.21 3.59 5.58 3.22 6.22 3.59 5.58 3.22 6.22 3.59 5.59 3.22 6.25 3.61.07.04m-10.1 5.83-.06-.03-.01-.01-6.25-3.61-5.58-3.22-6.22-3.6-5.58-3.22-6.22-3.59-5.58-3.22-6.21-3.59-5.58-3.22-6.22-3.59-5.58-3.22-5.92-3.42-5.57-3.22-.03-.01-.17-.1m60.69 46.7-.05-.03-.03-.01-6.25-3.61-5.58-3.23L99 71.61l-5.58-3.22-6.21-3.59-5.58-3.22-6.22-3.59-5.58-3.22-6.22-3.59-5.57-3.22-5.88-3.39-5.57-3.22-.05-.03-.19-.11m60.69 46.69-.04-.02-.03-.02-6.25-3.61-5.59-3.22-6.22-3.59-5.57-3.22-6.22-3.59-5.58-3.22-6.22-3.59-5.58-3.22-6.22-3.6-5.58-3.22-5.83-3.36-5.57-3.22-.07-.04-.21-.12m60.68 46.69-.03-.01-.04-.03-6.25-3.61-5.58-3.22-6.22-3.59-5.58-3.22-6.22-3.59-5.58-3.22-6.22-3.59-5.58-3.22-6.22-3.6-5.58-3.22-8.75-5.05-2.69-1.55-.24-.14m60.69 46.69-.02-.01-.06-.03-6.25-3.61-5.58-3.23-6.22-3.59-5.57-3.22-6.22-3.59-5.58-3.22-6.21-3.59-5.59-3.22-6.21-3.59-5.58-3.22-5.27-3.04-6.15-3.55-.27-.16m60.46 46.69-6.21-3.59-5.58-3.22-6.22-3.59-5.57-3.22-6.22-3.59-5.58-3.22-6.22-3.59-5.58-3.22-6.21-3.59-5.58-3.22-1.74-1.01-9.66-5.57-.41-.24"/><path fill="#CDD8F2" fill-rule="evenodd" stroke="#00208A" stroke-linejoin="round" stroke-width=".25" d="m21.69 39.35 7.47 15.53 13.37-5.06-16.12-9.53-4.72-.94Z" clip-rule="evenodd"/><path fill="#CDD8F2" fill-rule="evenodd" stroke="#00208A" stroke-linejoin="round" stroke-width=".25" d="m37.95 48.86-5.98 6.84 10.56-5.88-4.58-.96Z" clip-rule="evenodd"/><path fill="#CDD8F2" stroke="#00208A" stroke-linejoin="round" stroke-width=".25" d="m15.83 46.27.04 15.86 16.03 9.41.05-15.8-16.12-9.47Z"/><path fill="#fff" fill-rule="evenodd" stroke="#00208A" stroke-linejoin="round" stroke-width=".25" d="M42.39 65.47 31.9 71.54l.07-15.84 10.55-5.89-.13 15.66Z" clip-rule="evenodd"/><path fill="#6A89D8" fill-rule="evenodd" stroke="#00208A" stroke-linejoin="round" stroke-width=".25" d="m37.95 48.86-16.26-9.51-5.91 6.88 16.25 9.51 5.92-6.88Z" clip-rule="evenodd"/><path fill="#CDD8F2" fill-rule="evenodd" stroke="#00208A" stroke-linejoin="round" stroke-width=".25" d="m11.09 45.28 7.48 15.54 13.37-5.07-16.13-9.52-4.72-.95Z" clip-rule="evenodd"/><path fill="#CDD8F2" fill-rule="evenodd" stroke="#00208A" stroke-linejoin="round" stroke-width=".25" d="m27.35 54.79-5.98 6.85 10.57-5.89-4.59-.96Z" clip-rule="evenodd"/><path fill="#CDD8F2" stroke="#00208A" stroke-linejoin="round" stroke-width=".25" d="m5.24 52.2.03 15.87 16.11 9.47-.03-15.87L5.24 52.2Z"/><path fill="#fff" fill-rule="evenodd" stroke="#00208A" stroke-linejoin="round" stroke-width=".25" d="m31.9 71.54-10.56 6 .03-15.9 10.56-5.9-.03 15.8Z" clip-rule="evenodd"/><path fill="#6A89D8" fill-rule="evenodd" stroke="#00208A" stroke-linejoin="round" stroke-width=".25" d="m27.35 54.79-16.26-9.51-5.91 6.89 16.26 9.5 5.91-6.88Z" clip-rule="evenodd"/><path fill="#F1F4FE" stroke="#002484" stroke-linejoin="round" stroke-width=".25" d="m41.09 52-3.55 2.1v4.58l3.55-2.05V52Zm-4.38 2.56-3.55 2.11v4.57l3.55-2.04v-4.64Zm-10.39 5.96-3.55 2.11v4.57l3.55-2.04v-4.64Zm.18 6.08-3.56 2.1v4.58l3.56-2.05V66.6Z"/><path fill="#00208A" d="M36.38 68.82v-7.27l-2.69 1.51-.03 7.3 2.72-1.54Z"/><path fill="#fff" stroke="#002484" stroke-miterlimit="10" stroke-width=".25" d="m125.41 24.73-4.65.03-1.5 33.09V58c.03 1.43 1.78 2.39 3.93 2.39 2.17 0 3.94-1.12 3.94-2.48l-1.72-33.18Z"/><path fill="#6C89D9" stroke="#002484" stroke-miterlimit="10" stroke-width=".25" d="m120.44 31.88.32-7.13 4.65-.03.37 7.16s-.68 1.23-2.59 1.23c-1.91 0-2.75-1.23-2.75-1.23Z"/><path fill="#002484" stroke="#002484" stroke-miterlimit="10" stroke-width=".25" d="M125.41 24.7c0 .8-1.04 1.45-2.31 1.45-1.28 0-2.31-.65-2.31-1.45 0-.8 1.04-1.45 2.31-1.45 1.28 0 2.31.65 2.31 1.45Z"/><path stroke="#002484" stroke-miterlimit="10" stroke-width=".25" d="m125.41 24.73-4.65.03-1.5 33.09V58c.03 1.43 1.78 2.39 3.93 2.39 2.17 0 3.94-1.12 3.94-2.48l-1.72-33.18Z"/><path fill="#fff" stroke="#002484" stroke-miterlimit="10" stroke-width=".25" d="m117.54 21.37-4.65.03-1.5 33.09v.15c.03 1.43 1.78 2.39 3.93 2.39 2.17 0 3.94-1.12 3.94-2.48l-1.72-33.18Z"/><path fill="#6C89D9" stroke="#002484" stroke-miterlimit="10" stroke-width=".25" d="m112.57 28.53.32-7.13 4.65-.03.37 7.16s-.68 1.23-2.59 1.23c-1.91 0-2.75-1.23-2.75-1.23Z"/><path fill="#002484" stroke="#002484" stroke-miterlimit="10" stroke-width=".25" d="M117.54 21.34c0 .8-1.04 1.45-2.31 1.45s-2.31-.65-2.31-1.45c0-.8 1.04-1.45 2.31-1.45 1.28 0 2.31.65 2.31 1.45Z"/><path stroke="#002484" stroke-miterlimit="10" stroke-width=".25" d="m117.54 21.37-4.65.03-1.5 33.09v.15c.03 1.43 1.78 2.39 3.93 2.39 2.17 0 3.94-1.12 3.94-2.48l-1.72-33.18Z"/><path fill="#6C89D9" stroke="#002484" stroke-linejoin="round" stroke-width=".25" d="m79.69 42.74 22.06-12.82 8.82 13.01L88.5 55.75l-8.81-13.01Z"/><path fill="#6C89D9" stroke="#002484" stroke-linejoin="round" stroke-width=".25" d="m88.53 47.85 22.06-12.83 8.81 13-22.06 12.83-8.81-13Z"/><path fill="#6C89D9" stroke="#002484" stroke-linejoin="round" stroke-width=".25" d="m97.36 52.94 22.06-12.82 8.79 12.96-22.07 12.82-8.78-12.96Z"/><path fill="#D0D8F1" stroke="#00208A" stroke-linejoin="round" stroke-width=".25" d="m106.17 58.03 8.81 13-.03 9.69-8.8-4.93-8.84-5.1-8.83-5.1-8.84-5.1.05-17.75 8.81 13.01.03-7.9 8.81 13 .02-7.91 8.78 12.96.03-7.87Z"/><path fill="#6C89D9" stroke="#002484" stroke-linejoin="round" stroke-width=".25" d="m106.17 58.03 22.06-12.82 8.81 13-22.06 12.82-8.81-13Z"/><path fill="#FCFCFF" stroke="#002484" stroke-linejoin="round" stroke-width=".25" d="m114.98 71.03 22.06-12.82-.03 9.84-22.06 12.82.03-9.84Z"/><path fill="#00208A" d="M107.28 76.56v-7.27l2.69 1.52.03 7.29-2.72-1.54Z"/><path fill="#D0D8F1" stroke="#002484" stroke-linejoin="round" stroke-width=".25" d="m117.92 71.25 2.52-1.46.14 4.39-2.67 1.51v-4.45l.01.01Zm4.55-2.61 2.52-1.46.14 4.39-2.67 1.51v-4.45l.01.01Zm4.93-2.76 2.52-1.46.14 4.39-2.67 1.51v-4.45l.01.01Zm4.91-2.68 2.52-1.46.14 4.39-2.67 1.51v-4.45l.01.01Z"/><path fill="#FDFDFF" stroke="#002484" stroke-linejoin="round" stroke-width=".25" d="M100 70.67c.15-.15.28-.3.33-.4l-.76-.27v-.03s.38-.96.39-1.38l-.95-.08s.21-1.46.07-1.96c0 0-.4.17-.66.26l-.08-.28-.02-.06-.03-.08s-.39-1.32-.66-1.84l-.49.53-.12-.24s-.7-1.37-1.07-1.87c0 0-.12.63-.19.89l-.19-.25c-.06-.09-.13-.19-.13-.19s-.93-1.33-1.35-1.78c0 0 .06.75.07 1.07v-.06l-.13-.13s-1.1-1.19-1.56-1.56c0 0 .25.83.34 1.19l-.13-.16c-.09-.08-.21-.18-.21-.18s-1.2-1.01-1.66-1.28c0 0 .39.85.55 1.23l-.11-.05c-.09-.07-.12-.09-.12-.09s-1.23-.75-1.69-.9c0 0 .53.83.75 1.2 0 0-1.2-.36-1.59-.33 0 0 .67.71.96 1.04l-.07-.02c-.08-.01-.19 0-.19 0s-1.06 0-1.38.15c0 0 .72.59 1.04.87l.06.03c-.07.03-.14.08-.14.08s-.15.09-.34.22l11.45 6.69.01.02Z"/><path fill="#002484" d="M93.33 66.68c0-.54.44-.72 1-.4.56.32 1.01 1.01 1.01 1.54m-40-26.06a.46.46 0 0 0-.33-.29c-.07-.01-.12 0-.15.04l-.54.61v-6.95h-1.25v11.38c0 .09.06.19.19.26.25.14.64.14.89 0 .12-.07.18-.16.18-.26v-3.48l1.01-1.14s.04-.09.02-.16l-.02-.01Z"/><path fill="#2EA339" d="M55.67 40.14c-.53 0-1.05-.09-1.54-.26-1.21-.43-2.22-.63-3.16-.63-.76 0-1.53-.47-1.93-1.16-.37-.63-.37-1.33-.01-1.97a.17.17 0 0 0 0-.14c-1.65-2.14-1.18-5.04-.19-7.04 1.13-2.29 3.01-3.78 4.79-3.78.81 0 1.59.3 2.3.89.53.44 1.28.75 2.07 1.08 1.33.55 2.7 1.11 3.18 2.35.35.92.16 2.12-.58 3.65a.09.09 0 0 0 0 .1c.62 1.55.45 3.15-.47 4.5-1 1.48-2.7 2.39-4.43 2.39l-.03.02Z"/><path fill="#002484" d="M53.61 25.3c.78 0 1.53.29 2.22.87.54.45 1.3.76 2.1 1.09 1.31.54 2.65 1.09 3.11 2.28.34.89.15 2.05-.58 3.55-.03.06-.03.14 0 .2.6 1.51.44 3.07-.46 4.39-.96 1.42-2.66 2.34-4.33 2.34-.52 0-1.02-.09-1.5-.25-1.23-.43-2.25-.63-3.2-.64-.71 0-1.45-.44-1.83-1.1-.2-.34-.47-1.04-.01-1.84.05-.09.04-.2-.02-.28-1.61-2.09-1.15-4.94-.18-6.91 1.11-2.25 2.95-3.71 4.68-3.71m0-.24c-4.01 0-7.73 7.07-4.7 11.02-.91 1.59.52 3.31 2.05 3.31 1.07 0 2.11.27 3.12.62.52.18 1.05.27 1.58.27 3.33 0 6.5-3.36 5.02-7.07 2.77-5.7-2.72-5.57-4.69-7.22-.77-.64-1.58-.92-2.38-.92v-.01Zm-6.93 24.87s-.34.44-.75.44-.75-.44-.75-.44v-3.88h1.49v3.88h.01Z"/><path fill="#D5EDD7" d="M45.76 46.47c-3.32 0-6.03-3.71-6.03-8.26 0-4.76 4.78-10.91 5.78-10.91 1.06 0 6.27 6.3 6.27 10.91s-2.7 8.26-6.03 8.26h.01Z"/><path fill="#002484" d="M45.51 27.42c1.04 0 6.15 6.23 6.15 10.79 0 2.19-.62 4.24-1.75 5.78-1.11 1.52-2.59 2.35-4.15 2.35-3.25 0-5.9-3.65-5.9-8.14 0-1.95.9-4.55 2.47-7.13 1.44-2.36 2.8-3.66 3.19-3.66m-.01-.24c-1.2 0-5.91 6.41-5.91 11.04 0 4.63 2.75 8.39 6.15 8.39 3.4 0 6.15-3.75 6.15-8.39 0-4.63-5.2-11.04-6.4-11.04h.01Z"/><path fill="#00208A" d="M63.66 99.41s-.4.52-.88.52-.88-.52-.88-.52v-4.6h1.76v4.6Z"/><path fill="#99DCA6" d="M62.57 95.35c-3.95 0-7.16-4.4-7.16-9.8s5.47-12.94 6.87-12.94c1.26 0 7.45 7.48 7.45 12.94 0 5.46-3.21 9.8-7.16 9.8Z"/><path fill="#00208A" d="M62.28 72.73c1.02 0 7.33 7.15 7.33 12.82 0 2.6-.74 5.04-2.08 6.87-1.33 1.81-3.09 2.81-4.95 2.81-3.88 0-7.03-4.34-7.03-9.68 0-2.32 1.07-5.4 2.93-8.46 1.71-2.81 3.34-4.36 3.81-4.36m-.01-.25c-1.42 0-6.99 7.59-6.99 13.07s3.26 9.93 7.28 9.93c4.02 0 7.28-4.44 7.28-9.93 0-5.48-6.16-13.07-7.58-13.07h.01Zm10.34 30.65s-.4.52-.88.52-.88-.52-.88-.52v-4.6h1.76v4.6Z"/><path fill="#99DCA6" d="M71.53 99.07c-3.95 0-7.16-4.4-7.16-9.8 0-2.34 1.07-5.45 2.95-8.53 1.66-2.73 3.33-4.42 3.92-4.42 1.26 0 7.45 7.48 7.45 12.94 0 5.46-3.21 9.8-7.16 9.8v.01Z"/><path fill="#00208A" d="M71.24 76.45c1.02 0 7.33 7.15 7.33 12.82 0 2.6-.74 5.04-2.09 6.87-1.33 1.81-3.09 2.81-4.95 2.81-3.88 0-7.03-4.34-7.03-9.68 0-2.32 1.07-5.4 2.93-8.46 1.71-2.81 3.34-4.36 3.81-4.36Zm0-.25c-1.42 0-6.99 7.59-6.99 13.07s3.26 9.93 7.28 9.93c4.02 0 7.28-4.44 7.28-9.93 0-5.48-6.16-13.07-7.58-13.07h.01Z"/><path fill="#F57118" d="M121.4 17.62a1.12 1.12 0 1 0 0-2.24 1.12 1.12 0 0 0 0 2.24Zm-6.99-2.51a1.12 1.12 0 1 0 0-2.24 1.12 1.12 0 0 0 0 2.24Zm12.2 1.13a1.12 1.12 0 1 0 0-2.24 1.12 1.12 0 0 0 0 2.24Zm-10.04 7.84a1.12 1.12 0 1 0 0-2.24 1.12 1.12 0 0 0 0 2.24Zm3.71-10.09a1.12 1.12 0 1 0 0-2.24 1.12 1.12 0 0 0 0 2.24Zm8.96 7.73a1.12 1.12 0 1 0 0-2.24 1.12 1.12 0 0 0 0 2.24Zm-11.9-2.73a.77.77 0 1 0 0-1.54.77.77 0 0 0 0 1.54Zm-5.65.77a.77.77 0 1 0 0-1.54.77.77 0 0 0 0 1.54Zm10.8 11.31a.77.77 0 1 0 0-1.54.77.77 0 0 0 0 1.54Zm-11.58-5.17a.77.77 0 1 0 0-1.54.77.77 0 0 0 0 1.54Zm12.78-5.36a.77.77 0 1 0 0-1.54.77.77 0 0 0 0 1.54Zm-2.29 4.59a.77.77 0 1 0 0-1.54.77.77 0 0 0 0 1.54Zm5.21.77a.77.77 0 1 0 0-1.54.77.77 0 0 0 0 1.54Zm-16.23-11.61a.77.77 0 1 0 0-1.54.77.77 0 0 0 0 1.54Zm6.19-3.14a.77.77 0 1 0 0-1.54.77.77 0 0 0 0 1.54Zm-2.51a 18.37a.77.77 0 1 0 0-1.54.77.77 0 0 0 0 1.54Zm9.98-17.59a.77.77 0 1 0 0-1.54.77.77 0 0 0 0 1.54Z"/><path fill="#CAD2D9" stroke="#002484" stroke-miterlimit="10" stroke-width=".25" d="M83.03 6.25h1.62s.04.02.04.04v30.38c0 .44-.36.81-.81.81h-.11c-.44 0-.79-.35-.79-.79V6.3s.02-.04.04-.04l.01-.01Z"/><path fill="#86B1F2" d="M86.82 8.01c-1.04-.1-2.27-.23-3.58-.37v-.07c1.45-2.09.07-5.51-.07-5.84l3.24-.35s2.79 3.07.41 6.63Z"/><path fill="#FFFBF8" d="M86.82 8.01c2.38-3.56-.41-6.63-.41-6.63L89.99 1s3.35 4 0 7.34c0 0-1.28-.13-3.17-.33Z"/><path fill="#86B1F2" d="M78.77 2.2c.14.22 1.7 2.86.26 4.99v.02c-1.09-.11-2.14-.22-3.1-.32v-.07c.94-1.56-.1-3.88-.3-4.29l3.14-.33Z"/><path fill="#FFFBF8" d="M79.03 7.19c1.44-2.13-.12-4.77-.26-4.99l4.4-.47c.14.33 1.52 3.75.08 5.84v.07c-1.37-.13-2.82-.28-4.22-.43v-.02Z"/><path fill="#CAD2D9" d="M71.51 2.97c.37.22.64.86.64 1.62 0 .94-.41 1.7-.92 1.7-.12 0-.24-.05-.35-.13h-.01l-.09-.09c-.01-.01-.01-.02-.02-.03-.65-.84.03-2.82.09-2.99 0 0 0-.01.01-.01l.65-.07Z"/><path fill="#CAD2D9" d="m71.51 2.97-.65.07c.11-.1.24-.15.37-.15.1 0 .19.03.28.08Zm-.66.08c-.06.17-.74 2.15-.09 2.99-.26-.29-.44-.83-.44-1.45 0-.68.22-1.27.53-1.54Z"/><path stroke="#002484" stroke-miterlimit="10" stroke-width=".25" d="m71.51 2.97 4.12-.44 3.14-.33 4.4-.47 3.24-.35L89.99 1s3.35 4 0 7.34c0 0-1.28-.13-3.17-.33-1.04-.1-2.27-.23-3.58-.37-1.36-.13-2.81-.28-4.21-.43-1.09-.11-2.14-.22-3.1-.32-2.25-.24-4-.43-4.5-.49a.962.962 0 0 1-.55-.24m-.01-.01s-.06-.05-.09-.08"/><path stroke="#002484" stroke-miterlimit="10" stroke-width=".25" d="M70.86 3.04c.11-.1.24-.15.37-.15.1 0 .19.03.28.08.37.22.64.86.64 1.62 0 .94-.41 1.7-.92 1.7-.12 0-.24-.05-.35-.13m-.12-.12c-.26-.29-.44-.83-.44-1.45 0-.68.22-1.27.53-1.54m.02 3.1s-.06-.05-.09-.08m15.63-4.69s2.79 3.07.41 6.63c-.01.02-.02.03-.03.05M83.16 1.7l.01.03c.14.33 1.52 3.75.08 5.84m-4.49-5.39s0 .01.01.02c.14.22 1.7 2.86.26 4.99M75.6 2.47l.03.06c.2.41 1.24 2.73.31 4.29"/><path stroke="#002484" stroke-miterlimit="10" stroke-width=".25" d="M71.52 5.12s-8.37-.59-10.09 1.72c-1.72 2.31 1.76 3.96 2.79 2.12m7.38-5.15-13.83.47"/></svg>