<svg xmlns="http://www.w3.org/2000/svg" width="159" height="132" fill="none"><path fill="#F5F5F7" stroke="#002484" stroke-miterlimit="10" stroke-width=".25" d="M79.24 47.21 12 86.23 79.09 125l67.04-38.77-66.89-39.02Z"/><path fill="#D0D8F1" stroke="#002484" stroke-linejoin="round" stroke-width=".25" d="m79.04 131.69 67.09-38.73v-6.74l-67.09 38.74v6.73Z"/><path fill="#123EB7" stroke="#002484" stroke-linejoin="round" stroke-width=".25" d="M79.09 131.69 12 92.96v-6.74l67.09 38.74v6.73Z"/><path fill="#B66C23" stroke="#04005A" stroke-miterlimit="10" stroke-width=".25" d="M79.63 46.17c-.35-.02.08.51.28.69-.14.05-.38.12-.38.12s-1.28-.02-1.39.22c-.09.18.5.23.88.32-.37.07-.83.18-.88.33-.06.18.47.17.85.2-.21.09-.38.18-.39.27-.05.26 1.07.01 1.71-.11a2.64 2.64 0 0 0 1.07-.49l.72-.12.05-1.16s-1.03.4-1.7.08c-.21-.13-.55-.34-.82-.36v.01Z"/><path fill="#00208A" d="m90.68 76.03 1.47-.6.25-2.05-1.93.41.21 2.24Z"/><path fill="#EDF1F9" stroke="#04005A" stroke-miterlimit="10" stroke-width=".25" d="M90.56 75.43s-.53 1.07-1.15 1.47c-2.29 1.45-1.86 1.55-1.93 1.83-.11.5 1.44.29 2.11-.03 2.11-1.01 2.09-1.41 2.09-1.41v.29s.77-.29.73-.76c-.04-.47-.26-1.54-.26-1.54s-.35.39-.95.39-.63-.24-.63-.24h-.01Z"/><path fill="#00208A" d="m95.47 78.39 1.48-.6.24-2.06-1.93.41.21 2.25Z"/><path fill="#EDF1F9" d="M92.12 33.99s-1.75-.16-2.58.79c-.83.95-1.83 7.38-2.9 8.48-1.65 1.7-5.07 3.13-5.07 3.13l.55 1.97c4.54-1.63 5.55-2.23 6.84-3.23s3.16-11.15 3.16-11.15v.01Z"/><mask id="a" width="12" height="16" x="81" y="33" maskUnits="userSpaceOnUse" style="mask-type:luminance"><path fill="#fff" d="M92.12 33.99s-1.75-.16-2.58.79c-.83.95-1.83 7.38-2.9 8.48-1.65 1.7-5.07 3.13-5.07 3.13l.55 1.97c4.54-1.63 5.55-2.23 6.84-3.23s3.16-11.15 3.16-11.15v.01Z"/></mask><g mask="url(#a)"><path fill="#CDD8F2" d="M89.33 39.6c-.18.05-3.41 8.39-3.28 8.46.13.07 7.26 1.38 7.26 1.38l.14-9.02-4.11-.81-.01-.01Z"/></g><path stroke="#04005A" stroke-miterlimit="10" stroke-width=".25" d="M92.12 33.99s-1.75-.16-2.58.79c-.83.95-1.83 7.38-2.9 8.48-1.65 1.7-5.07 3.13-5.07 3.13l.55 1.97c4.54-1.63 5.55-2.23 6.84-3.23s3.16-11.15 3.16-11.15v.01Z"/><path fill="#00208A" d="m97.84 52.01-.26 24.49c-.01.62-.52 1.12-1.14 1.12h-1.58l-1.92-21.96-.27 18.42c0 .69-.56 1.24-1.24 1.24l-1.45.05-1.24-25.06s1.24 1.58 3.29 1.91c2.05.33 5.8-.22 5.8-.22l.01.01Z"/><path fill="#EDF1F9" d="M89.36 39.47c.09 1.99.23 3.84.23 3.84-.07 3.83-1.14 7.6-1.14 7.6s.49 1.31 4.18 2.74c4.05 1.57 5.46-1.64 5.46-1.64s.15-2.86-.35-7.24h-.01l.11-5.07s.11-.66-.37-1.96c-.48-1.3-3.08-2.97-3.08-2.97l-.41-.06-1.42-.92"/><path stroke="#04005A" stroke-miterlimit="10" stroke-width=".25" d="M89.36 39.47c.09 1.99.23 3.84.23 3.84-.07 3.83-1.14 7.6-1.14 7.6s.49 1.31 4.18 2.74c4.05 1.57 5.46-1.64 5.46-1.64s.15-2.86-.35-7.24h-.01l.11-5.07s.11-.66-.37-1.96c-.48-1.3-3.08-2.97-3.08-2.97l-.41-.06-1.42-.92"/><path fill="#B66C23" stroke="#04005A" stroke-miterlimit="10" stroke-width=".25" d="M94.52 33.44s-.18.97 0 1.61c.18.64-.95 1.22-1.97 1.16-1.02-.06-.95-.68-.98-1.45-.03-.77 2.95-1.32 2.95-1.32Z"/><path fill="#B66C23" d="M93.26 34.83s-1.02.74-1.62.4c-1.06-.6-1.4-3.01-.96-4.44.44-1.43 3.59-.99 3.59-.99l.41 3.58"/><path stroke="#04005A" stroke-miterlimit="10" stroke-width=".25" d="M93.26 34.83s-1.02.74-1.62.4c-1.06-.6-1.4-3.01-.96-4.44.44-1.43 3.59-.99 3.59-.99l.41 3.58"/><path fill="#04005A" d="m94.22 32.19-.25.72-.32.14v-1.71s-.41.61-1.44.77c-1.34.21-2.24-.82-2.24-.82s-.09-1.1 1.21-1.73c.78-.37 1.89-1.12 3-.56s.73 1.05.73 1.05 1.06.44.26 2.58c-.37.98-.78 1.36-.78 1.36l.08-1.49-.25-.31Z"/><path fill="#00208A" d="M94.9 54.3s1.27.77 1.9.82c.63.05.77-.29.77-.29L97 57.75l-2.99-1.19.9-2.26h-.01Z"/><path fill="#EDF1F9" stroke="#04005A" stroke-miterlimit="10" stroke-width=".25" d="M90.56 75.43s-.53 1.07-1.15 1.47c-2.29 1.45-1.86 1.55-1.93 1.83-.11.5 1.44.29 2.11-.03 2.11-1.01 2.09-1.41 2.09-1.41v.29s.77-.29.73-.76c-.04-.47-.26-1.54-.26-1.54s-.35.39-.95.39-.63-.24-.63-.24h-.01Z"/><path fill="#00208A" d="m95.59 78.2 1.37-.56.23-1.91-1.79.39.19 2.08Z"/><path fill="#EDF1F9" stroke="#04005A" stroke-miterlimit="10" stroke-width=".25" d="M95.48 77.64s-.49.99-1.07 1.36c-2.12 1.34-1.73 1.44-1.79 1.7-.11.46 1.34.27 1.96-.03 1.96-.94 1.94-1.31 1.94-1.31v.27s.71-.27.68-.71c-.03-.44-.24-1.43-.24-1.43s-.32.36-.88.36-.59-.22-.59-.22l-.01.01Z"/><path fill="#B66C23" d="M93.96 32.67c.04.19.14.47.14.47s.21-.06.29-.12c.21-.14.32-.51.25-.83-.07-.32-.29-.45-.49-.31s-.26.47-.2.79h.01Z"/><path fill="#B66C23" stroke="#04005A" stroke-miterlimit="10" stroke-width=".25" d="M94.81 54.79c-.2.3.48.19.74.11-.02.15-.09.39-.09.39s-.66 1.09-.51 1.31c.11.17.46-.31.72-.59-.13.35-.26.81-.16.93.13.14.38-.32.6-.64-.03.22-.03.42.04.48.2.18.55-.91.77-1.53.22-.62.12-1.18.12-1.18l.26-.68-.98-.64s-.18 1.09-.79 1.51c-.22.11-.57.3-.73.53h.01Z"/><path fill="#EDF1F9" d="M96.26 36.18c2.13 1.23 3.15 4.67 3.68 7.94.58 3.59-2.35 9.76-2.35 9.76l-1.8-.73s1.69-5.38 1.57-7.66c0-1.63-.64-3.28-.64-3.28"/><path stroke="#04005A" stroke-miterlimit="10" stroke-width=".25" d="M96.26 36.18c2.13 1.23 3.15 4.67 3.68 7.94.58 3.59-2.35 9.76-2.35 9.76l-1.8-.73s1.69-5.38 1.57-7.66c0-1.63-.64-3.28-.64-3.28"/><path fill="#F5C814" stroke="#04005A" stroke-miterlimit="10" stroke-width=".25" d="M95.56 31.66s-.6.22-1.79.33c-1.19.11-1.28.56-2.44.54-1.16-.02-2.53-.29-2.8-.65-.27-.36.66-.7.74-.85.08-.15-.02-.44.28-.81.3-.37-.36-.98.95-1.97s2.26-.78 3.12-.58c0 0 .73.53.88.63.54.33.88 1 .9 1.46l.02.46s.39.25.27.96c0 0 .21.38-.13.48Z"/><path fill="#F5C814" stroke="#04005A" stroke-miterlimit="10" stroke-width=".25" d="M95.2 30.21s-.58.3-1.49.37-.53.48-.56.82c-.03.34.69.22 1.2.14.51-.08 1.21-.34 1.21-.34s.11-.68-.36-.98v-.01Z"/><path stroke="#04005A" stroke-miterlimit="10" stroke-width=".25" d="M94.09 28.01s-1.82.02-2.41.56c0 0-1.58.45-1.18-.32"/><path fill="#F5C814" d="M89.28 31.03s.77.87 3.26.51l-3.26-.51Z"/><path stroke="#04005A" stroke-miterlimit="10" stroke-width=".25" d="M89.28 31.03s.77.87 3.26.51"/><path fill="#3861CB" stroke="#00208A" stroke-miterlimit="10" stroke-width=".25" d="m60.93 67.07 20.42 8.8 2.24-1.04-20.19-9.19-2.47 1.43Z"/><path fill="#FFFBF8" stroke="#002484" stroke-miterlimit="10" stroke-width=".25" d="m75.39 74.23 20.42 8.81 2.24-1.05-20.19-9.18-2.47 1.42Z"/><path fill="#FFFBF8" stroke="#002484" stroke-linejoin="round" stroke-width=".25" d="m83.35 89.53-2.17 1.25 11.57-25.71h1.46L83.35 89.53Z"/><path fill="#6A89D8" stroke="#00208A" stroke-miterlimit="10" stroke-width=".25" d="m81.18 90.78-.49-.28 11.27-25.57.79.14-11.57 25.71Z"/><path fill="#FFFBF8" stroke="#002484" stroke-linejoin="round" stroke-width=".25" d="M66.17 80.64 64 81.89l11.57-25.71h1.46L66.17 80.64Z"/><path fill="#6A89D8" stroke="#00208A" stroke-miterlimit="10" stroke-width=".25" d="m64 81.89-.49-.28 11.27-25.57.79.14L64 81.89Z"/><path fill="#6A89D8" stroke="#00208A" stroke-miterlimit="10" stroke-width=".25" d="m78.1 75.27-.07 1.94L59 66.3l.06-1.93 19.04 10.9Z"/><path fill="#FFFBF8" stroke="#002484" stroke-linejoin="round" stroke-width=".25" d="m96.91 64.28-.06 1.96-18.77 10.99.07-1.96 18.76-10.99Z"/><path fill="#D0D8F1" stroke="#002484" stroke-linejoin="round" stroke-width=".25" d="m59.06 64.32 18.77-10.85 18.9 10.69.13.07L78.1 75.22l-19.04-10.9Z"/><path fill="#00208A" d="M88.64 76.39a.31.31 0 1 0 0-.62.31.31 0 0 0 0 .62Z"/><path fill="#E6E6E6" stroke="#00208A" stroke-miterlimit="10" stroke-width=".25" d="m79.46 67.44-7.9-4.56 16.5-8.74 7.67 3.99-16.27 9.31Z"/><path fill="#E6E6E6" stroke="#00208A" stroke-miterlimit="10" stroke-width=".25" d="M79.46 67.44v.61l16.27-9.17v-.75l-16.27 9.31Z"/><path fill="#E6E6E6" stroke="#00208A" stroke-miterlimit="10" stroke-width=".25" d="m79.46 68.05-8.02-4.64.12-.53 7.9 4.56v.61Z"/><path fill="#F57118" stroke="#04005A" stroke-miterlimit="10" stroke-width=".25" d="m84.25 60.37-2.89.31 3.09-3.23-3.34 2.3 1.21-3.09-2.47 3.16.09-3.42-1.13 3.78-1.56-3.65s.89 6.02 1.18 6.02c.29 0 .8.4.8.4l5.02-2.58Z"/><path fill="#FDFDFF" d="M78.8 63.28c.68-.29-.1-.85-.15-.89l.05-.02c.24-.23.8-.71.8-.71-.25-.18-1.07-.29-1.07-.29s-.08-.02-.15-.02h-.06c.22-.27.74-.87.74-.87-.3-.07-1.23.14-1.23.14.17-.33.58-1.06.58-1.06-.35.09-1.3.66-1.3.66s-.02.02-.09.07l-.08.04c.12-.34.43-1.11.43-1.11-.36.2-1.29 1.02-1.29 1.02l-.16.14-.1.14c.07-.34.26-1.1.26-1.1-.36.29-1.21 1.3-1.21 1.3s-.05.05-.1.11v.06c0-.31.05-1.02.05-1.02-.33.38-1.04 1.54-1.04 1.54l-.1.16-.15.21c-.05-.26-.14-.88-.14-.88-.28.43-.83 1.66-.83 1.66s-.06.12-.1.22l-.37-.57c-.21.47-.51 1.69-.51 1.69s0 .03-.02.08v.06l-.08.26c-.2-.12-.5-.33-.5-.33-.11.46.05 1.9.05 1.9l-.73-.04c0 .41.29 1.34.3 1.39v.03l-.59.17c.11.33.62.95.62.95s.04.06.08.1l4.95-2.7v-.69l3.23-1.81.01.01Z"/><path stroke="#000056" stroke-linejoin="round" stroke-width=".25" d="M78.8 63.28c.68-.29-.1-.85-.15-.89l.05-.02c.24-.23.8-.71.8-.71-.25-.18-1.07-.29-1.07-.29s-.08-.02-.15-.02h-.06c.22-.27.74-.87.74-.87-.3-.07-1.23.14-1.23.14.17-.33.58-1.06.58-1.06-.35.09-1.3.66-1.3.66s-.02.02-.09.07l-.08.04c.12-.34.43-1.11.43-1.11-.36.2-1.29 1.02-1.29 1.02l-.16.14-.1.14c.07-.34.26-1.1.26-1.1-.36.29-1.21 1.3-1.21 1.3s-.05.05-.1.11v.06c0-.31.05-1.02.05-1.02-.33.38-1.04 1.54-1.04 1.54l-.1.16-.15.21c-.05-.26-.14-.88-.14-.88-.28.43-.83 1.66-.83 1.66s-.06.12-.1.22l-.37-.57c-.21.47-.51 1.69-.51 1.69s0 .03-.02.08v.06l-.08.26c-.2-.12-.5-.33-.5-.33-.11.46.05 1.9.05 1.9l-.73-.04c0 .41.29 1.34.3 1.39v.03l-.59.17c.11.33.62.95.62.95s.04.06.08.1l4.95-2.7v-.69l3.23-1.81.01.01Z"/><path fill="#E6E6E6" d="M93.11 56.76s-3.3.03-4.46 1.65c-1.16 1.62-1.77 3.61-4.66 4.68-2.89 1.07-5.94 3.47-5.94 3.47"/><path stroke="#00208A" stroke-miterlimit="10" stroke-width=".25" d="M93.11 56.76s-3.3.03-4.46 1.65c-1.16 1.62-1.77 3.61-4.66 4.68-2.89 1.07-5.94 3.47-5.94 3.47"/><path fill="#E6E6E6" d="M93.67 57.05s-3.29.14-4.19 1.64c-.9 1.5-2.23 3.09-4.36 4.39-2.13 1.3-4.33 2.37-6.56 3.97"/><path stroke="#00208A" stroke-miterlimit="10" stroke-width=".25" d="M93.67 57.05s-3.29.14-4.19 1.64c-.9 1.5-2.23 3.09-4.36 4.39-2.13 1.3-4.33 2.37-6.56 3.97"/><path fill="#E6E6E6" d="M89.7 54.99s.74 1.15-6.88 2.06l6.88-2.06Z"/><path stroke="#00208A" stroke-miterlimit="10" stroke-width=".25" d="M89.7 54.99s.74 1.15-6.88 2.06"/><path fill="#E6E6E6" stroke="#00208A" stroke-miterlimit="10" stroke-width=".25" d="M88.95 56.4s-2.99 1.06-3.05 1.73c-.06.67 3.89-1.1 3.05-1.73Z"/><path fill="#F57118" d="M81.18 47.57a1.07 1.07 0 1 0 0-2.14 1.07 1.07 0 0 0 0 2.14ZM74.56 45.19a1.07 1.07 0 1 0 0-2.14 1.07 1.07 0 0 0 0 2.14ZM86.12 46.26a1.07 1.07 0 1 0 0-2.14 1.07 1.07 0 0 0 0 2.14ZM76.6 53.69a1.07 1.07 0 1 0 0-2.14 1.07 1.07 0 0 0 0 2.14ZM80.12 44.13a1.07 1.07 0 1 0 0-2.14 1.07 1.07 0 0 0 0 2.14ZM88.61 51.45a1.07 1.07 0 1 0 0-2.14 1.07 1.07 0 0 0 0 2.14ZM77.34 48.86a.73.73 0 1 0 0-1.46.73.73 0 0 0 0 1.46ZM71.97 49.59a.73.73 0 1 0 0-1.46.73.73 0 0 0 0 1.46ZM82.22 60.3a.73.73 0 1 0 0-1.46.73.73 0 0 0 0 1.46ZM71.24 55.41a.73.73 0 1 0 0-1.46.73.73 0 0 0 0 1.46ZM83.35 50.32a.73.73 0 1 0 0-1.46.73.73 0 0 0 0 1.46ZM81.18 54.68a.73.73 0 1 0 0-1.46.73.73 0 0 0 0 1.46ZM86.12 55.41a.73.73 0 1 0 0-1.46.73.73 0 0 0 0 1.46ZM70.73 44.4a.73.73 0 1 0 0-1.46.73.73 0 0 0 0 1.46ZM76.6 41.43a.73.73 0 1 0 0-1.46.73.73 0 0 0 0 1.46ZM74.23 58.84a.73.73 0 1 0 0-1.46.73.73 0 0 0 0 1.46ZM83.68 42.16a.73.73 0 1 0 0-1.46.73.73 0 0 0 0 1.46Z"/><path fill="#FFFBF8" stroke="#002484" stroke-linejoin="round" stroke-width=".24" d="M100.46 86.04 34 47.67V1l66.46 38.37v46.67Z"/><path stroke="#000056" stroke-miterlimit="10" stroke-width=".49" d="M110.35 69.7h-1.36c-2.09-.01-3.51-1.25-3.6-3.12-.09-1.94 1.14-3.33 3.21-3.52.5-.05.69-.07.8-.66.27-1.58 1.28-2.66 2.81-3.09 1.58-.44 3.04-.06 4.12 1.23.42.49.8.61 1.42.58 1.69-.09 2.98.91 3.4 2.6.12.48.22.71.8.77 1.56.17 2.39 1.2 2.33 2.71-.06 1.42-1.12 2.48-2.63 2.5h-3.86M110.04 55.84h-1.46c-2.25-.01-3.78-1.35-3.88-3.37-.1-2.09 1.23-3.59 3.46-3.79.54-.05.75-.07.86-.71.29-1.7 1.37-2.87 3.03-3.33 1.71-.47 3.28-.07 4.44 1.32.45.53.86.66 1.53.62 1.82-.1 3.21.98 3.66 2.8.13.52.24.76.86.83 1.68.18 2.58 1.3 2.51 2.92-.06 1.53-1.2 2.67-2.83 2.7h-4.16"/><path fill="#F57118" d="M97.75 62.74c0 .42-.32.58-.71.36-.39-.22-.71-.76-.71-1.18 0-.42.32-.58.71-.36.39.22.71.76.71 1.18ZM81.95 60.62c0 .42-.32.58-.71.36-.39-.22-.71-.76-.71-1.18 0-.42.32-.58.71-.36.39.22.71.76.71 1.18Z"/><path stroke="#F57118" stroke-miterlimit="10" stroke-width=".24" d="m41.63 44.36 2.24-8.07 5.77 8.24 9.61-17.9 11.24 20.6 3.02 13.09 7.85-.11 15.68 2.12"/><path fill="#F57118" d="M42.34 44.77c0 .42-.32.58-.71.36-.39-.22-.71-.76-.71-1.18 0-.42.32-.58.71-.36.39.22.71.76.71 1.18ZM44.58 36.7c0 .42-.32.58-.71.36-.39-.22-.71-.76-.71-1.18 0-.42.32-.58.71-.36.39.22.71.76.71 1.18ZM50.4 45.18c0 .42-.32.58-.71.36-.39-.22-.71-.76-.71-1.18 0-.42.32-.58.71-.36.39.22.71.76.71 1.18ZM60.57 27.39c0 .78-.59 1.08-1.32.66-.73-.42-1.32-1.4-1.32-2.18 0-.78.59-1.08 1.32-.66.73.42 1.32 1.4 1.32 2.18ZM71.27 47.45c0 .42-.32.58-.71.36-.39-.22-.71-.76-.71-1.18 0-.42.32-.58.71-.36.39.22.71.76.71 1.18ZM74.22 60.73c0 .42-.32.58-.71.36-.39-.22-.71-.76-.71-1.18 0-.42.32-.58.71-.36.39.22.71.76.71 1.18Z"/><path stroke="#2765FF" stroke-miterlimit="10" stroke-width=".24" d="m97.83 64.98-7.86-9.18-6.22 2.42-8.36-7.83-6.87 3.94-8.98-24.1-5.47 18.16-3.4-9.27-4.1 7.42-5.4-15.02-2.3 2.42-2.29-2.95"/><path stroke="#000056" stroke-miterlimit="10" stroke-width=".49" d="M115.88 48.81h-3.03l-1.52 2.63 1.52 2.63h3.03l1.52-2.63-1.52-2.63ZM112.82 48.82l-.74-1.31M116.51 55.33l-.7-1.22M115.82 48.77l.72-1.24M112.05 55.31l.74-1.28M117.4 51.42h1.39M109.8 51.42h1.53"/><path fill="#000056" d="M110.974 68.274c-1.156 0-1.892-.605-1.898-1.516h.946c.006.468.359.761.982.761.515 0 .821-.204.821-.545 0-.407-.437-.491-.946-.57-.749-.107-1.762-.239-1.762-1.269 0-.82.677-1.354 1.768-1.354 1.102 0 1.809.587 1.809 1.48h-.917c.006-.462-.329-.725-.869-.725-.503 0-.796.21-.796.527 0 .413.479.485 1.018.563.749.114 1.689.276 1.689 1.288 0 .827-.713 1.36-1.845 1.36Zm2.906-3.606c-.312 0-.533-.216-.533-.521 0-.3.221-.522.533-.522a.51.51 0 0 1 .533.522c0 .305-.222.52-.533.52Zm.443 3.492h-.887v-3.067h.887v3.067Zm2.95.114c-1.396 0-2.36-.893-2.36-2.246 0-1.348.964-2.247 2.36-2.247s2.36.899 2.36 2.247c0 1.353-.964 2.246-2.36 2.246Zm0-.827c.803 0 1.366-.58 1.366-1.42 0-.838-.563-1.413-1.366-1.413-.803 0-1.366.575-1.366 1.413 0 .84.563 1.42 1.366 1.42Zm4.257.713h-1.539v-.269l.864-.768c.152-.137.272-.24.272-.394 0-.18-.14-.312-.324-.312-.211 0-.365.166-.374.42h-.432c-.012-.47.33-.812.811-.812.444 0 .765.28.768.663 0 .251-.16.441-.411.657l-.482.418v.029h.847v.368Z"/><path fill="#002484" d="m73.77 96.04-1.58-.65-.27-2.2 2.07.44-.22 2.41Z"/><path fill="#EFF2F9" stroke="#000056" stroke-miterlimit="10" stroke-width=".25" d="M73.9 95.39s.57 1.15 1.24 1.57c2.45 1.55 2 1.66 2.06 1.96.12.53-1.55.31-2.26-.03-2.26-1.09-2.24-1.51-2.24-1.51v.31s-.82-.31-.78-.81c.04-.5.28-1.65.28-1.65s.37.42 1.02.42.68-.26.68-.26Z"/><path fill="#002484" d="m68.64 98.56-1.59-.64-.26-2.2 2.07.44-.22 2.4ZM72.22 50.98s1.77-.07 2.76.85c1.31 1.2 2.38 9.25 3.53 10.43 1.5 1.69 3.5 3.76 3.5 3.76l-.99 2.04c-1.4-1.35-3.78-2.85-5.01-5.16-2.76-5.2-3.79-11.93-3.79-11.93v.01Z"/><mask id="b" width="11" height="19" x="72" y="50" maskUnits="userSpaceOnUse" style="mask-type:luminance"><path fill="#fff" d="M72.22 50.98s1.77-.07 2.76.85c1.31 1.2 2.38 9.25 3.53 10.43 1.5 1.69 3.5 3.76 3.5 3.76l-.99 2.04c-1.4-1.35-3.78-2.85-5.01-5.16-2.76-5.2-3.79-11.93-3.79-11.93v.01Z"/></mask><g mask="url(#b)"><path fill="#000056" d="M75.21 56.99c.19.05 3.65 8.99 3.52 9.06-.13.07-7.78 1.48-7.78 1.48l-.15-9.67 4.41-.87Z"/></g><path stroke="#000056" stroke-miterlimit="10" stroke-width=".25" d="M72.22 50.98s1.77-.07 2.76.85c1.31 1.2 2.38 9.25 3.53 10.43 1.5 1.69 3.5 3.76 3.5 3.76l-.99 2.04c-1.4-1.35-3.78-2.85-5.01-5.16-2.76-5.2-3.79-11.93-3.79-11.93v.01Z"/><path fill="#002484" d="m66.1 70.29.27 26.25c.01.67.56 1.2 1.22 1.2h1.69l2.06-23.53.29 19.74c0 .73.6 1.33 1.33 1.33l1.55.06 1.33-26.86s-1.33 1.69-3.53 2.05c-2.2.36-6.22-.23-6.22-.23l.01-.01Z"/><path fill="#002484" d="M75.18 56.85c-.1 2.14-.25 4.11-.25 4.11.08 4.1 1.22 8.14 1.22 8.14s-.53 1.4-4.48 2.94c-4.34 1.68-5.85-1.75-5.85-1.75l.27-13.2s-.12-.71.4-2.1c.52-1.39 3.3-3.18 3.3-3.18l.44-.06 1.52-.98"/><path stroke="#000056" stroke-miterlimit="10" stroke-width=".25" d="M75.18 56.85c-.1 2.14-.25 4.11-.25 4.11.08 4.1 1.22 8.14 1.22 8.14s-.53 1.4-4.48 2.94c-4.34 1.68-5.85-1.75-5.85-1.75l.27-13.2s-.12-.71.4-2.1c.52-1.39 3.3-3.18 3.3-3.18l.44-.06 1.52-.98"/><path fill="#AD6F34" stroke="#000056" stroke-miterlimit="10" stroke-width=".25" d="M69.65 50.39s.19 1.04 0 1.73 1.02 1.3 2.11 1.25c1.09-.05 1.02-.73 1.06-1.55.04-.82-3.17-1.42-3.17-1.42v-.01Z"/><path fill="#AD6F34" d="M71.01 51.88s1.09.79 1.74.42c1.13-.64 1.51-3.22 1.03-4.76-.48-1.54-3.84-1.06-3.84-1.06l-.44 3.84"/><path stroke="#000056" stroke-miterlimit="10" stroke-width=".25" d="M71.01 51.88s1.09.79 1.74.42c1.13-.64 1.51-3.22 1.03-4.76-.48-1.54-3.84-1.06-3.84-1.06l-.44 3.84"/><path fill="#000056" d="m69.97 49.05.27.77.35.15v-1.83s.44.65 1.55.83c1.44.23 2.4-.88 2.4-.88s.1-1.18-1.3-1.85c-.84-.4-2.03-1.2-3.21-.6-1.18.6-.79 1.13-.79 1.13s-1.14.47-.28 2.76c.39 1.05.84 1.46.84 1.46l-.09-1.6.27-.33-.01-.01Z"/><path fill="#002484" d="M69.24 72.75s-1.36.83-2.03.88c-.67.05-.82-.32-.82-.32l.61 3.13 3.21-1.28-.97-2.42v.01ZM73.9 95.39s.57 1.15 1.24 1.57c2.45 1.55 2 1.66 2.06 1.96.12.53-1.55.31-2.26-.03-2.26-1.09-2.24-1.51-2.24-1.51v.31s-.82-.31-.78-.81c.04-.5.28-1.65.28-1.65s.37.42 1.02.42.68-.26.68-.26ZM68.5 98.36l-1.47-.6-.24-2.04 1.92.4-.21 2.24Z"/><path fill="#002484" d="M68.62 97.76s.52 1.07 1.15 1.46c2.28 1.44 1.85 1.54 1.92 1.82.11.5-1.44.29-2.1-.03-2.1-1.01-2.08-1.4-2.08-1.4v.29s-.76-.29-.73-.76c.03-.47.26-1.53.26-1.53s.35.39.95.39.63-.24.63-.24Z"/><path fill="#AD6F34" d="M70.25 49.56c-.04.2-.15.5-.15.5s-.23-.06-.32-.12c-.22-.15-.34-.55-.27-.89.07-.34.31-.49.53-.33.22.16.28.51.21.84Z"/><path fill="#002484" d="M67.79 53.32c-2.28 1.32-3.42 1.66-5.14 7.18-.21.67-1.08 2.46-.05 3.91 1.69 2.38 4.6 4.07 4.6 4.07s2.54-2.09 1.44-2.13c-1.1-.04-3.3-2.7-3.75-3.28-.45-.58 2.5-4.77 2.5-4.77"/><path stroke="#000056" stroke-miterlimit="10" stroke-width=".25" d="M67.79 53.32c-2.28 1.32-3.42 1.66-5.14 7.18-.21.67-1.08 2.46-.05 3.91 1.69 2.38 4.6 4.07 4.6 4.07s2.54-2.09 1.44-2.13c-1.1-.04-3.3-2.7-3.75-3.28-.45-.58 2.5-4.77 2.5-4.77"/><path fill="#EFF1FE" stroke="#04005A" stroke-miterlimit="10" stroke-width=".25" d="M75.26 47.27s-.1-1.87-2.07-1.85c-1.97.02-3.37-.12-3.24 1.84 0 0 2.57 1.36 3.71 1.19 1.14-.17 1.6-1.18 1.6-1.18Z"/><path fill="#EFF1FE" stroke="#04005A" stroke-miterlimit="10" stroke-width=".25" d="M69.95 47.26s4.41 1.25 5.31 0c0 0 .15 4.25-.38 5.04-.49.72-2.9 1.23-4.26-.11-.82-.82-.54-2.6-.67-4.94v.01Z"/><path fill="#86B1F2" stroke="#000056" stroke-miterlimit="10" stroke-width=".25" d="m71.12 48.88.12 1.51c2.36.75 3.97-.11 3.97-.11l.05-1.39c-1.45.57-3.67.21-4.15-.02l.01.01Z"/><path fill="#F2F2F2" stroke="#000056" stroke-linejoin="round" stroke-width=".25" d="M82.22 68.91c-.94-.32-2.78-1.24-2.78-1.24-.02-2.45 1.96-3.91 1.96-3.91s1.88-.09 2.79.31c1.11.64-1.49.91-1.2 1.06.76.39 3.78.37 4 1.2.37 1.45-.49 4.04-4.77 2.57v.01Z"/><path fill="#EFF1FE" d="M72.94 68.3c-2.21.28-7.47 1.19-7.47 1.19s-.75.94.24 1.32c.99.38 5.78-.77 7.42-.89"/><path stroke="#04005A" stroke-miterlimit="10" stroke-width=".25" d="M72.94 68.3c-2.21.28-7.47 1.19-7.47 1.19s-.75.94.24 1.32c.99.38 5.78-.77 7.42-.89"/><path fill="#F2F2F2" stroke="#000056" stroke-linejoin="round" stroke-width=".25" d="m64.47 66.37 1.01 2.16s.4 1.56 1.54 2.21c1.14.65 2.55.66 3.09.24.21-.17-.12-.92-.41-1.48-.16-.31.01-.69.35-.77l.97-.15s.04-.88-1.44-1.16c0 0-1.04-2.43-2.29-3.45 0 0-3.12.98-2.83 2.41l.01-.01Z"/><path fill="#EFF1FE" stroke="#04005A" stroke-miterlimit="10" stroke-width=".25" d="M73.32 69.886c.26-.05.4-.46.312-.916-.089-.455-.372-.783-.632-.733-.26.05-.4.46-.31.916.088.456.37.784.63.733Z"/><path fill="#04005A" d="M73.39 69.528c.13-.025.192-.265.14-.536-.053-.272-.201-.47-.331-.446-.13.026-.193.266-.14.537.052.271.2.47.33.445Z"/><path fill="#04005A" d="m73.19 68.58 5.28-.85c.35-.06.69.16.79.5l.5 1.8c.04.14-.03.29-.16.36a.71.71 0 0 1-.22.07c-.15.02-.45 0-.5-.14l-.33-1.17c-.04-.15-.04-.36-.19-.34l-4.98.75"/><path fill="#EFF1FE" stroke="#04005A" stroke-miterlimit="10" stroke-width=".25" d="M79.337 70.466c.208-.03.36-.168.34-.31-.02-.143-.205-.234-.412-.205-.208.03-.36.169-.34.31.02.143.204.235.412.205Z"/><path fill="#3861CB" stroke="#00208A" stroke-miterlimit="10" stroke-width=".25" d="m97.12 87.11-20.43 8.81-2.23-1.05 20.19-9.18 2.47 1.42Z"/><path fill="#6A89D8" stroke="#00208A" stroke-miterlimit="10" stroke-width=".25" d="m82.66 94.28-20.43 8.8-2.23-1.04 20.19-9.19 2.47 1.43Z"/><path fill="#6A89D8" stroke="#00208A" stroke-miterlimit="10" stroke-width=".25" d="m74.7 109.57 2.17 1.25L65.3 85.11h-1.46l10.86 24.46Z"/><path fill="#FFFBF8" stroke="#002484" stroke-linejoin="round" stroke-width=".25" d="m76.87 110.82.49-.28-11.27-25.57-.79.14 11.57 25.71Z"/><path fill="#6A89D8" stroke="#00208A" stroke-miterlimit="10" stroke-width=".25" d="m91.43 99.72 2.17 1.26-11.57-25.71h-1.45l10.85 24.45Z"/><path fill="#FFFBF8" stroke="#002484" stroke-linejoin="round" stroke-width=".25" d="m93.6 100.98.49-.28-11.27-25.57-.79.14 11.57 25.71Z"/><path fill="#001C77" stroke="#00208A" stroke-miterlimit="10" stroke-width=".25" d="m61.26 84.28 18.96-10.86 18.76 10.99-19.04 10.9-18.69-10.95s-.03-.07 0-.09l.01.01Zm18.77 10.91 18.74-10.82-18.61-10.82-18.74 10.82 18.61 10.82Z"/><path fill="#D0D8F1" stroke="#002484" stroke-linejoin="round" stroke-width=".25" d="m61.41 84.37 18.62 10.82 18.73-10.82-18.61-10.82-18.74 10.82Z"/><path fill="#FFFBF8" stroke="#002484" stroke-linejoin="round" stroke-width=".25" d="m79.95 95.32.07 1.93 19.03-10.9-.06-1.94-19.04 10.91Z"/><path fill="#6A89D8" stroke="#00208A" stroke-miterlimit="10" stroke-width=".25" d="m61.19 84.32.06 1.97 18.77 10.99-.07-1.96-18.76-11Z"/><path fill="#F2F2F2" stroke="#000056" stroke-miterlimit="10" stroke-width=".25" d="m74.14 80.85 2.33-.6 7.58-4.98c.33-.22.78-.22 1.27.04.5.26.95.73 1.27 1.29.33.56.52 1.2.52 1.78 0 .59-.2 1.02-.53 1.23l-7.56 5.01-1.42 1.5-2.54 1.87-3.23-5.51 2.3-1.64.01.01Z"/><path fill="#F2F2F2" stroke="#000056" stroke-miterlimit="10" stroke-width=".25" d="M76.3 80.25c.35-.04.74.04 1.17.29.58.33 1.1.9 1.47 1.55.38.65.61 1.39.61 2.05 0 .5-.09.94-.29 1.21a.71.71 0 0 1-.24.22l-1.42 1.35-.31.2c.4-.29.59-.87.59-1.63 0-.82-.28-1.73-.75-2.54-.46-.81-1.11-1.51-1.83-1.93-.47-.27-.93-.39-1.31-.36l1.96-.36c.11-.04.22-.06.34-.07l.01.02Z"/><path fill="#F2F2F2" stroke="#000056" stroke-miterlimit="10" stroke-width=".25" d="m73.81 80.66.13-.08.12-.02a.93.93 0 0 1 .29-.05c.39-.03.84.09 1.32.36.71.41 1.36 1.12 1.83 1.93.47.81.75 1.72.75 2.53 0 .75-.18 1.32-.58 1.62l-.12.08-2.53 1.63-3.73-6.43 2.52-1.57Z"/><path fill="#F2F2F2" d="M73.03 82.49c-1.46-.84-2.64-.17-2.65 1.51l2.65-1.51ZM70.38 84c0 1.68 1.17 3.72 2.63 4.56 1.46.84 2.65.17 2.65-1.51s-1.17-3.72-2.63-4.56"/><path stroke="#000056" stroke-miterlimit="10" stroke-width=".25" d="M73.03 82.49c-1.46-.84-2.64-.17-2.65 1.51 0 1.68 1.17 3.72 2.63 4.56 1.46.84 2.65.17 2.65-1.51s-1.17-3.72-2.63-4.56Z"/><path fill="silver" d="M71.15 84.45c0-.59.21-1 .55-1.19.34-.19.8-.16 1.31.13.51.29.98.8 1.31 1.38.34.58.54 1.23.54 1.82 0 .59-.21 1-.55 1.2-.34.19-.8.16-1.32-.13-.52-.29-.98-.8-1.31-1.38-.34-.58-.54-1.23-.54-1.82"/><path stroke="#000056" stroke-miterlimit="10" stroke-width=".25" d="M71.15 84.45c0-.59.21-1 .55-1.19.34-.19.8-.16 1.31.13.51.29.98.8 1.31 1.38.34.58.54 1.23.54 1.82 0 .59-.21 1-.55 1.2-.34.19-.8.16-1.32-.13-.52-.29-.98-.8-1.31-1.38-.34-.58-.54-1.23-.54-1.82"/><path fill="#F57118" stroke="#04005A" stroke-miterlimit="10" stroke-width=".25" d="m77.33 75.51 1.69-2v4.04l.75-3.58 1.14 2.77-.36-3.6 2.07 2.29L81 72.26l3.29 1.41s-4.33-3.37-4.52-3.19c-.19.18-.77.23-.77.23l-1.67 4.82v-.02Z"/><path fill="#F57118" d="M81.17 56.57a1.07 1.07 0 1 0 0-2.14 1.07 1.07 0 0 0 0 2.14ZM74.55 54.2a1.07 1.07 0 1 0 0-2.14 1.07 1.07 0 0 0 0 2.14ZM86.11 55.26a1.07 1.07 0 1 0 0-2.14 1.07 1.07 0 0 0 0 2.14ZM76.6 62.7a1.07 1.07 0 1 0 0-2.14 1.07 1.07 0 0 0 0 2.14ZM80.11 53.13a1.07 1.07 0 1 0 0-2.14 1.07 1.07 0 0 0 0 2.14ZM88.61 60.45a1.07 1.07 0 1 0 0-2.14 1.07 1.07 0 0 0 0 2.14ZM77.33 57.86a.73.73 0 1 0 0-1.46.73.73 0 0 0 0 1.46ZM71.97 58.59a.73.73 0 1 0 0-1.46.73.73 0 0 0 0 1.46ZM82.21 69.31a.73.73 0 1 0 0-1.46.73.73 0 0 0 0 1.46ZM71.23 64.41a.73.73 0 1 0 0-1.46.73.73 0 0 0 0 1.46ZM83.34 59.33a.73.73 0 1 0 0-1.46.73.73 0 0 0 0 1.46ZM81.17 63.68a.73.73 0 1 0 0-1.46.73.73 0 0 0 0 1.46ZM86.11 64.41a.73.73 0 1 0 0-1.46.73.73 0 0 0 0 1.46ZM70.73 53.41a.73.73 0 1 0 0-1.46.73.73 0 0 0 0 1.46ZM76.6 50.44a.73.73 0 1 0 0-1.46.73.73 0 0 0 0 1.46ZM74.22 67.84a.73.73 0 1 0 0-1.46.73.73 0 0 0 0 1.46ZM83.67 51.17a.73.73 0 1 0 0-1.46.73.73 0 0 0 0 1.46Z"/></svg>
