<svg xmlns="http://www.w3.org/2000/svg" width="138" height="118" fill="none"><path fill="#F5F5F7" stroke="#002484" stroke-miterlimit="10" stroke-width=".25" d="M69.41 31.09 1 70.79l68.26 39.45 68.21-39.46-68.06-39.69Z"/><path fill="#D0D8F1" stroke="#002484" stroke-linejoin="round" stroke-width=".25" d="m69.21 117.04 68.26-39.41v-6.85l-68.26 39.41v6.85Z"/><path fill="#123EB7" stroke="#002484" stroke-linejoin="round" stroke-width=".25" d="M69.26 117.04 1 77.63v-6.85l68.26 39.41v6.85Z"/><path fill="#F57118" d="M78.1 42.63a1.08 1.08 0 1 0 0-2.16 1.08 1.08 0 0 0 0 2.16Z"/><path fill="#CCEDD3" d="M1.59 70.65 35.7 50.91l67.62 39.04-34 19.86L1.59 70.65Z"/><path fill="#EFF2F9" stroke="#000056" stroke-miterlimit="10" stroke-width=".25" d="M80.49 18.25c-.72.36-2.74 5.15-2.98 6.28-.72 2.7-1.79 6.15-1.79 6.15l-2.64.13s0-2.64 1.69-7.98c1.24-3.95 3.31-10.08 4.78-12.19.45-.65 2.19-1.22 3.03-.99l.76 1.52v1.85s-2.27 4.94-2.85 5.24v-.01Z"/><path fill="#002484" d="m81.49 60.85 1.81-.73.31-2.53-2.37.51.25 2.75Z"/><path fill="#EFF2F9" stroke="#000056" stroke-miterlimit="10" stroke-width=".25" d="M81.34 60.12s-.65 1.31-1.42 1.8c-2.81 1.78-2.28 1.9-2.36 2.24-.14.61 1.77.36 2.59-.03 2.59-1.24 2.56-1.73 2.56-1.73v.36s.94-.36.89-.93c-.05-.57-.32-1.89-.32-1.89s-.43.48-1.17.48-.78-.3-.78-.3h.01Z"/><path fill="#002484" d="m87.37 63.74 1.81-.73.31-2.53-2.38.51.26 2.75Z"/><path fill="#002484" d="m90.28 31.39-.31 30.04c-.01.76-.64 1.38-1.4 1.38h-1.94l-2.35-26.93-.33 22.59c0 .84-.68 1.52-1.52 1.52l-1.78.07-1.52-30.74s1.52 1.93 4.04 2.34c2.52.41 7.11-.27 7.11-.27Z"/><path fill="#EFF2F9" d="M79.88 16c.11 2.45.29 4.7.29 4.7-.09 4.7-1.39 9.32-1.39 9.32s.6 1.61 5.13 3.36c4.97 1.93 6.7-2.01 6.7-2.01s.18-3.51-.43-8.88h-.02l.14-6.22s.14-.81-.45-2.41c-.59-1.6-3.78-3.64-3.78-3.64l-.5-.07-1.74-1.13"/><path stroke="#000056" stroke-miterlimit="10" stroke-width=".25" d="M79.88 16c.11 2.45.29 4.7.29 4.7-.09 4.7-1.39 9.32-1.39 9.32s.6 1.61 5.13 3.36c4.97 1.93 6.7-2.01 6.7-2.01s.18-3.51-.43-8.88h-.02l.14-6.22s.14-.81-.45-2.41c-.59-1.6-3.78-3.64-3.78-3.64l-.5-.07-1.74-1.13"/><path fill="#F9E8D8" stroke="#000056" stroke-miterlimit="10" stroke-width=".25" d="M86.21 8.61s-.22 1.19 0 1.98-1.16 1.49-2.41 1.43c-1.25-.07-1.16-.83-1.21-1.78-.05-.95 3.62-1.62 3.62-1.62v-.01Z"/><path fill="#F9E8D8" d="M84.65 10.31s-1.25.9-1.99.49c-1.3-.73-1.72-3.69-1.18-5.45.54-1.76 4.4-1.21 4.4-1.21l.5 4.39"/><path stroke="#000056" stroke-miterlimit="10" stroke-width=".25" d="M84.65 10.31s-1.25.9-1.99.49c-1.3-.73-1.72-3.69-1.18-5.45.54-1.76 4.4-1.21 4.4-1.21l.5 4.39"/><path fill="#000056" d="m85.84 7.08-.31.88-.4.18v-2.1s-.51.74-1.77.94c-1.65.26-2.75-1.01-2.75-1.01s-.11-1.35 1.49-2.12c.96-.46 2.32-1.37 3.68-.68 1.36.69.9 1.29.9 1.29s1.3.54.32 3.16c-.45 1.2-.96 1.67-.96 1.67l.1-1.83-.31-.38h.01Z"/><path fill="#002484" d="M86.67 34.2s1.56.95 2.33 1.01c.77.06.94-.36.94-.36l-.7 3.58-3.67-1.46 1.11-2.77h-.01Z"/><path fill="#EFF2F9" stroke="#000056" stroke-miterlimit="10" stroke-width=".25" d="M81.34 60.12s-.65 1.31-1.42 1.8c-2.81 1.78-2.28 1.9-2.36 2.24-.14.61 1.77.36 2.59-.03 2.59-1.24 2.56-1.73 2.56-1.73v.36s.94-.36.89-.93c-.05-.57-.32-1.89-.32-1.89s-.43.48-1.17.48-.78-.3-.78-.3h.01Z"/><path fill="#002484" d="m87.52 63.51 1.68-.68.29-2.35-2.21.47.24 2.56Z"/><path fill="#EFF2F9" stroke="#000056" stroke-miterlimit="10" stroke-width=".25" d="M87.38 62.83s-.6 1.22-1.32 1.67c-2.61 1.65-2.12 1.77-2.19 2.08-.13.57 1.64.33 2.4-.03 2.4-1.15 2.38-1.61 2.38-1.61v.33s.87-.33.83-.87c-.04-.54-.3-1.75-.3-1.75s-.4.45-1.08.45-.72-.27-.72-.27Z"/><path fill="#EFF2F9" d="M88.33 11.97c2.61 1.51 3.87 5.72 4.52 9.74.71 4.41-2.89 11.96-2.89 11.96l-2.21-.89s2.07-6.59 1.93-9.39c0-1.99-.79-4.03-.79-4.03"/><path stroke="#000056" stroke-miterlimit="10" stroke-width=".25" d="M88.33 11.97c2.61 1.51 3.87 5.72 4.52 9.74.71 4.41-2.89 11.96-2.89 11.96l-2.21-.89s2.07-6.59 1.93-9.39c0-1.99-.79-4.03-.79-4.03"/><path fill="#fff" stroke="#04005A" stroke-miterlimit="10" stroke-width=".25" d="m76.873 32.474.935.166-.395 2.235-1.005-.178a.627.627 0 0 1-.51-.73l.167-.945a.691.691 0 0 1 .8-.56l.008.012Z"/><path fill="#fff" stroke="#04005A" stroke-miterlimit="10" stroke-width=".25" d="m72.707 32.449 3.377.597-.188 1.063-3.338-.59a.444.444 0 0 1-.357-.51l.044-.246a.401.401 0 0 1 .463-.324l-.001.01Zm9.533 9.341-1.38 7.78.59 1.83-.5 2.81s-.71.17-1.38.08c-.67-.09-3.64-.61-4.81-1.21l.5-2.81 1.13-1.59 1.35-7.98 2.19-1.54 2.31 2.62v.01Z"/><path fill="#fff" stroke="#04005A" stroke-miterlimit="10" stroke-width=".25" d="M83.18 41.66s-.46.21-.94.13c0 0-1.05-.97-2.25-1.21s-2.53.2-2.53.2-.4-.14-.79-.53 3.01-.98 3.01-.98l3.21 1.37.27 1.03.02-.01Z"/><path fill="#fff" stroke="#04005A" stroke-miterlimit="10" stroke-width=".25" d="m77.07 38.07-.39 2.18s1.58-.63 3.31-.26 3.19 1.67 3.19 1.67l.39-2.18-.44-1.38-5.9-.91-.16.89v-.01Z"/><path fill="#fff" stroke="#04005A" stroke-miterlimit="10" stroke-width=".25" d="m85.62 30.16-6.95-1.23a.7.7 0 0 0-.82.58l-1.43 8.11 1.37.24s.7-.24 2.88.15c2.18.39 2.51 1.04 2.51 1.04l1.57.28 1.47-8.32c.07-.4-.2-.78-.59-.85h-.01ZM80.34 54.3c.1.02-.06-.6-2.58-1.11-2-.41-2.4.14-2.4.14l-.12.68c.63.6.84 1.33.77 2.16l2.72.48c.12-.6.37-1.18 1.49-1.66l.12-.69Z"/><path fill="#fff" stroke="#04005A" stroke-miterlimit="10" stroke-width=".25" d="m75.596 58.603 2.688.475a.85.85 0 0 0 .985-.689l.157-.886a.85.85 0 0 0-.689-.985l-2.688-.475a.85.85 0 0 0-.985.689l-.157.886a.85.85 0 0 0 .689.985Z"/><path fill="#fff" stroke="#04005A" stroke-miterlimit="10" stroke-width=".25" d="M77.47 58.74s-.44-.83-1.14-.2c0 0-1.44 8.63-1.53 8.66-.19.06-.92 2.83-.74 2.86l1.37.23s.37-.53.18-2.88l1.87-8.67h-.01Z"/><path stroke="#04005A" stroke-miterlimit="10" stroke-width=".25" d="M80.96 54.21s-.16-.54-1.17-1.02c-1.3-.61-3.64-1.11-5.02-.11"/><path fill="#fff" d="M80.91 51.2s-2.66-1.48-5.19-.92l5.19.92Z"/><path stroke="#04005A" stroke-miterlimit="10" stroke-width=".25" d="M80.91 51.2s-2.66-1.48-5.19-.92"/><path fill="#fff" d="M80.5 49.45c-.08 0-2.31-.96-3.76-.67l3.76.67Z"/><path stroke="#04005A" stroke-miterlimit="10" stroke-width=".25" d="M80.5 49.45c-.08 0-2.31-.96-3.76-.67m-.33-11.16 1.1-.64L84 38.12l.74 1.21"/><path fill="#fff" stroke="#04005A" stroke-miterlimit="10" stroke-width=".25" d="m85.796 36.544-1.083-.191.43-2.433 1.014.18a.75.75 0 0 1 .608.869l-.181 1.024a.68.68 0 0 1-.788.551Zm4.382.226-3.614-.639.204-1.152 3.663.648c.237.042.39.262.349.498l-.047.266a.47.47 0 0 1-.545.381l-.01-.002Z"/><path stroke="#04005A" stroke-miterlimit="10" stroke-width=".25" d="m84 38.12 1.41-7.99m-7.9 6.85 1.42-8"/><path fill="#F9E8D8" stroke="#000056" stroke-miterlimit="10" stroke-width=".25" d="M75.39 31.56c-.07-.08-.56-.89-.56-.89l-1.17.2s-.28.63-.22 1.43c.07.8.16 2.2.44 2.05.1-.05.16-.28.19-.56.16.44.32 1.07.52.94.16-.11.14-.69.09-1.15.23.41.49 1.09.68.92.24-.21-.21-1.72-.21-1.72s0-.31.02-.49c.28.18 1.05.51.91.1-.11-.32-.47-.65-.7-.85l.01.02Zm11.17 3.24c-.24.36.59.23.91.13-.03.18-.11.48-.11.48s-.81 1.34-.63 1.61c.14.2.56-.39.89-.73-.16.43-.32 1-.19 1.14.16.17.47-.4.74-.78-.04.27-.04.51.04.59.24.22.68-1.12.94-1.88.26-.76.15-1.44.15-1.44l.17-.45-1.2-.57s-.39.96-.81 1.25c-.27.14-.7.37-.89.65h-.01Z"/><path fill="#F5C814" stroke="#04005A" stroke-miterlimit="10" stroke-width=".25" d="M87.29 5.22s-.61.23-1.82.34c-1.21.11-1.3.57-2.48.55-1.18-.02-2.57-.29-2.85-.66-.28-.37.67-.71.76-.86.09-.15-.02-.44.28-.82.3-.38-.36-1 .96-2.01 1.32-1.01 2.3-.79 3.17-.59 0 0 .74.54.9.64.55.34.9 1.02.92 1.49l.02.47s.4.25.27.98c0 0 .22.39-.13.49v-.02Z"/><path fill="#F5C814" stroke="#04005A" stroke-miterlimit="10" stroke-width=".25" d="M86.92 3.75s-.59.31-1.52.37-.54.48-.57.83c-.03.35.7.23 1.22.15.52-.08 1.24-.35 1.24-.35s.11-.69-.37-1Z"/><path stroke="#04005A" stroke-miterlimit="10" stroke-width=".25" d="M85.8 1.51s-1.85.02-2.45.57c0 0-1.61.46-1.2-.33"/><path fill="#F5C814" d="M80.9 4.58s.78.89 3.32.52l-3.32-.52Z"/><path stroke="#04005A" stroke-miterlimit="10" stroke-width=".25" d="M80.9 4.58s.78.89 3.32.52"/><path fill="#fff" stroke="#000056" stroke-miterlimit="10" stroke-width=".25" d="M73.56 67.82s-2.65-1.56-2.96.78c-.31 2.34-3.29 2.38-1.72 3.28 1.57.9 4.37-.78 4.37-.78s2.96-1.25.31-3.28Zm3.58 2.16s.35 3.03 2.34 1.99c1.99-1.04 3.77 1.37 3.53-.41-.24-1.78-3.16-3.14-3.16-3.14s-2.7-1.73-2.71 1.56Z"/><path fill="#fff" stroke="#000056" stroke-miterlimit="10" stroke-width=".25" d="M69.2 68.1s-2.5.62-.73 1.14c1.77.52 1.25-.1.73-1.14Zm8.07 4.06c-.42-.31-3.85-2.91-4.06-1.46-.21 1.45-.94 2.91.94 3.33 1.88.42 4.16-.62 3.85-1.25-.31-.63-.73-.62-.73-.62Zm7.26-3.46c-.81 1.62 1.04 2.08 1.87 1.66.83-.42 2.29-.83 1.04-2.08s-2.6-.21-2.91.42Zm-4.78 2.5c-.95.76-.1 1.66.94 1.46 1.04-.2 1.14-3.12-.94-1.46Zm-7.86-12.27c1.56.09 3.06.33 2.4 1.63-.66 1.3-5.8 2.7-4.54 1.05 1.26-1.65.64-2.76 2.13-2.67l.01-.01Zm2.16 3.91c1.61.2-.71 1.81-1.04 1.25-.33-.56-.62-1.46 1.04-1.25Zm-6.99.35c-.19 1.58 2.29 2.91 2.39 1.77.1-1.14-2.29-2.64-2.39-1.77Zm12.38 3.02c.99.99 2.91 1.46 1.87 0s-3.22-1.35-1.87 0Z"/><path fill="#F57118" d="M64.8 68.6a1.08 1.08 0 1 0 0-2.16 1.08 1.08 0 0 0 0 2.16Zm-.51 6.82a1.08 1.08 0 1 0 0-2.16 1.08 1.08 0 0 0 0 2.16Zm-4.95-36.89a1.08 1.08 0 1 0 0-2.16 1.08 1.08 0 0 0 0 2.16Zm3.8 20.92a1.08 1.08 0 1 0 0-2.16 1.08 1.08 0 0 0 0 2.16Zm7.17-4.88a1.08 1.08 0 1 0 0-2.16 1.08 1.08 0 0 0 0 2.16Zm-1.99-3.47a1.08 1.08 0 1 0 0-2.16 1.08 1.08 0 0 0 0 2.16Zm-7.41 2.81a1.08 1.08 0 1 0 0-2.16 1.08 1.08 0 0 0 0 2.16Zm7.49-8.89a.75.75 0 1 0 0-1.5.75.75 0 0 0 0 1.5Zm-9.24-.19a.75.75 0 1 0 0-1.5.75.75 0 0 0 0 1.5Zm3.51 5.3a.75.75 0 1 0 0-1.5.75.75 0 0 0 0 1.5Zm1.72-8.19a.75.75 0 1 0 0-1.5.75.75 0 0 0 0 1.5Zm2.1 13.65a.75.75 0 1 0 0-1.5.75.75 0 0 0 0 1.5Z"/><path fill="#A0B2E2" stroke="#000056" stroke-linejoin="round" stroke-width=".25" d="M120.94 72.74s1.06 1.63 2.12 0l-.64-19.34s-.62-.18-1.17 0l-.31 19.34Z"/><path fill="#A0B2E2" stroke="#000056" stroke-linejoin="round" stroke-width=".25" d="m118.91 38.96 4.95 2.86v14.42l-4.92-2.75-.03-14.53Zm4.95 2.86 1.44-.74V55.5l-1.44.74V41.82Z"/><path fill="#A0B2E2" stroke="#000056" stroke-linejoin="round" stroke-width=".25" d="m118.91 38.92 4.95 2.86s1.54-.59 1.44-.74c-.1-.15-4.95-2.86-4.95-2.86l-1.44.74Z"/><path fill="#FBC39E" stroke="#000056" stroke-miterlimit="10" stroke-width=".25" d="M121.66 47.153c1.088-.158 1.79-1.53 1.567-3.067-.222-1.536-1.284-2.653-2.372-2.495-1.088.157-1.789 1.53-1.567 3.066.223 1.536 1.285 2.653 2.372 2.496Z"/><path stroke="#002484" stroke-miterlimit="10" stroke-width=".25" d="M116.25 45.9c-2.9 2.9-2.9 7.57 0 10.47"/><path stroke="#002484" stroke-miterlimit="10" stroke-width=".25" d="M117.23 46.88a5.97 5.97 0 0 0 0 8.47"/><path stroke="#002484" stroke-miterlimit="10" stroke-width=".25" d="M118.13 47.78a4.672 4.672 0 0 0 0 6.63"/><path fill="#2FEA52" stroke="#000056" stroke-miterlimit="10" stroke-width=".25" d="M121.714 53.815c1.061-.153 1.745-1.492 1.528-2.99-.217-1.497-1.253-2.587-2.313-2.433-1.06.153-1.744 1.492-1.527 2.99.217 1.497 1.252 2.587 2.312 2.433Z"/><path fill="#F57118" d="M62.98 24.44a1.07 1.07 0 1 0 0-2.14 1.07 1.07 0 0 0 0 2.14Zm-6.62-2.37a1.07 1.07 0 1 0 0-2.14 1.07 1.07 0 0 0 0 2.14Zm11.56 1.07a1.07 1.07 0 1 0 0-2.14 1.07 1.07 0 0 0 0 2.14Zm-9.52 7.43a1.07 1.07 0 1 0 0-2.14 1.07 1.07 0 0 0 0 2.14ZM61.92 21a1.07 1.07 0 1 0 0-2.14 1.07 1.07 0 0 0 0 2.14Zm8.49 7.33a1.07 1.07 0 1 0 0-2.14 1.07 1.07 0 0 0 0 2.14Zm-11.27-2.6a.73.73 0 1 0 0-1.46.73.73 0 0 0 0 1.46Zm-5.36.74a.73.73 0 1 0 0-1.46.73.73 0 0 0 0 1.46Zm10.24 10.71a.73.73 0 1 0 0-1.46.73.73 0 0 0 0 1.46Zm-10.98-4.89a.73.73 0 1 0 0-1.46.73.73 0 0 0 0 1.46Zm12.11-5.09a.73.73 0 1 0 0-1.46.73.73 0 0 0 0 1.46Zm-2.17 4.35a.73.73 0 1 0 0-1.46.73.73 0 0 0 0 1.46Zm4.94.74a.73.73 0 1 0 0-1.46.73.73 0 0 0 0 1.46ZM52.53 21.28a.73.73 0 1 0 0-1.46.73.73 0 0 0 0 1.46Zm5.87-2.97a.73.73 0 1 0 0-1.46.73.73 0 0 0 0 1.46Zm-2.37 17.4a.73.73 0 1 0 0-1.46.73.73 0 0 0 0 1.46Zm9.45-16.67a.73.73 0 1 0 0-1.46.73.73 0 0 0 0 1.46Z"/></svg>
