<svg xmlns="http://www.w3.org/2000/svg" width="152" height="131" fill="none"><path fill="#FFFBF8" stroke="#002484" stroke-miterlimit="10" stroke-width=".25" d="m67.93 47.32 65.96 38.08V39.09L67.93 1v46.32Z"/><path stroke="#F57118" stroke-miterlimit="10" stroke-width=".25" d="m131.67 55.94-7.81-9.11-6.17 2.41-8.29-7.78-6.83 3.91-8.91-23.91-5.42 18.02-3.38-9.2-4.07 7.36-5.36-14.9-2.28 2.4-2.27-2.93"/><path stroke="#2765FF" stroke-miterlimit="10" stroke-width=".25" d="m131.67 68.99-5.53-4.65-6.99-2.58-7.8-6.98-6.34 4.09-3.05 2.31-8.27-21.8-5.99 6.81-3.17-4.41-7.8 3.91-5.85-10.15"/><path stroke="#2765FF" stroke-miterlimit="10" stroke-width=".25" d="M131.37 78.13 125.55 74l-6.69-3.09-8.31-6.11-4.76 1.36-2.23.88-11.72-15.82-3.91 3.2-3.69-3.5-6.1.95-7.22-7.77"/><path stroke="#123EB7" stroke-miterlimit="10" stroke-width=".25" d="m131.67 48.95-60.79-35.1M131.67 58.33l-60.79-35.1M131.67 67.71l-60.79-35.1M131.67 77.08 70.88 41.99"/><path fill="#000056" d="M139.185 46.45h-1.29v-5.604h2.463c1.369 0 2.251.725 2.243 1.881 0 1.15-.889 1.89-2.251 1.89h-1.165v1.833Zm0-4.612v1.787h1.063c.645 0 1.046-.355 1.046-.898s-.409-.889-1.046-.889h-1.063Zm5.479 4.612h-1.274v-5.604h1.81l1.471 3.983h.079l1.464-3.983h1.826v5.604h-1.275v-3.856h-.079l-1.44 3.856h-1.063l-1.44-3.856h-.079v3.856ZM147.02 70.13a.29.29 0 0 1 .42.01c.72.82 1.11 1.86 1.11 2.96 0 1.1-.39 2.14-1.11 2.96-.11.13-.31.13-.42.01a.281.281 0 0 1-.01-.39c.63-.71.97-1.62.97-2.58s-.34-1.86-.97-2.58a.29.29 0 0 1 .01-.39Z"/><path fill="#000056" d="M146.2 75.25a.292.292 0 0 1-.02-.39c.41-.49.63-1.11.63-1.75 0-.64-.22-1.26-.63-1.75a.28.28 0 0 1 .02-.39c.12-.12.32-.11.43.02.5.6.77 1.34.77 2.13 0 .79-.27 1.53-.77 2.13-.11.13-.31.14-.43.02v-.02ZM147.84 69.31a.29.29 0 0 1 .42.01 5.598 5.598 0 0 1 1.45 3.78c0 1.41-.51 2.74-1.45 3.78a.29.29 0 0 1-.42.01.284.284 0 0 1 0-.4c.84-.93 1.3-2.13 1.3-3.39 0-1.26-.46-2.46-1.3-3.39-.1-.12-.1-.29 0-.4ZM142.48 70.67h-2.56c-.15 0-.27.12-.27.27v4.33c0 .15.12.27.27.27h2.56l2.27 1.69c.08.06.18 0 .18-.09v-8.06c0-.09-.11-.15-.18-.09l-2.27 1.69v-.01ZM148.63 55.13c-.27-.64-.66-1.22-1.16-1.72-.5-.5-1.07-.89-1.72-1.16-.67-.28-1.37-.42-2.1-.42a5.357 5.357 0 0 0-3.82 1.58c-.5.5-.89 1.07-1.16 1.72-.28.67-.42 1.37-.42 2.1a5.357 5.357 0 0 0 1.58 3.82c.5.5 1.07.89 1.72 1.16.67.28 1.37.42 2.1.42a5.357 5.357 0 0 0 3.82-1.58c.5-.5.89-1.07 1.16-1.72.28-.67.42-1.37.42-2.1s-.14-1.44-.42-2.1Zm-8.96 3.18c.03-.32.16-.57.38-.7.17-.1.57-.22 1.07-.28.5-.05.94-.02 1.24.09.05.33.22.61.47.81-.05.32-.24.72-.54 1.12-.3.41-.6.69-.78.79-.22.13-.5.12-.79-.02-.31-.15-.58-.42-.78-.76-.2-.35-.29-.72-.27-1.06v.01Zm5.45-4.38c0 .2-.09.6-.3 1.07-.2.46-.45.82-.7 1.03-.15-.06-.3-.09-.47-.09-.17 0-.32.03-.47.09-.25-.21-.5-.57-.7-1.03-.21-.46-.3-.87-.3-1.07 0-.25.15-.49.42-.68.28-.19.65-.3 1.05-.3s.77.11 1.05.3c.27.18.42.42.42.68Zm-2.56 3.31c0-.6.49-1.09 1.09-1.09.6 0 1.09.49 1.09 1.09 0 .6-.49 1.09-1.09 1.09-.6 0-1.09-.49-1.09-1.09Zm4.01 2.9c-.29.14-.58.15-.79.02-.17-.1-.48-.38-.78-.79-.3-.41-.48-.8-.54-1.12.25-.2.42-.48.47-.81.3-.11.74-.15 1.24-.09.5.05.9.18 1.07.28.22.13.35.37.38.7.03.34-.07.72-.27 1.06-.2.35-.48.62-.78.76v-.01Z"/><path fill="#FDFDFD" stroke="#002484" stroke-linejoin="round" stroke-width=".25" d="M67.69 47.09 1.01 85.78l66.53 38.46 66.49-38.46-66.34-38.69Z"/><path fill="#D0D8F1" stroke="#002484" stroke-linejoin="round" stroke-width=".25" d="m67.49 130.87 66.54-38.41v-6.68l-66.54 38.41v6.68Z"/><path fill="#123EB7" stroke="#002484" stroke-linejoin="round" stroke-width=".25" d="M67.54 130.87 1 92.46v-6.68l66.54 38.41v6.68Z"/><path fill="#EDF1F9" d="M38.81 35.48s1.85-.17 2.73.84c.88 1.01 1.94 7.82 3.08 8.99 1.75 1.8 5.04 3.68 5.04 3.68l-.25 1.73c-4.82-1.73-5.88-2.37-7.25-3.42-1.37-1.05-3.35-11.82-3.35-11.82Z"/><mask id="a" width="12" height="16" x="38" y="35" maskUnits="userSpaceOnUse" style="mask-type:luminance"><path fill="#fff" d="M38.81 35.48s1.85-.17 2.73.84c.88 1.01 1.94 7.82 3.08 8.99 1.75 1.8 5.04 3.68 5.04 3.68l-.25 1.73c-4.82-1.73-5.88-2.37-7.25-3.42-1.37-1.05-3.35-11.82-3.35-11.82Z"/></mask><g mask="url(#a)"><path fill="#CDD8F2" d="M41.77 41.42c.19.05 3.61 8.89 3.48 8.96-.13.07-7.69 1.46-7.69 1.46l-.15-9.56 4.36-.86Z"/></g><path stroke="#04005A" stroke-miterlimit="10" stroke-width=".25" d="M38.81 35.48s1.85-.17 2.73.84c.88 1.01 1.94 7.82 3.08 8.99 1.75 1.8 5.04 3.68 5.04 3.68l-.25 1.73c-4.82-1.73-5.88-2.37-7.25-3.42-1.37-1.05-3.35-11.82-3.35-11.82Z"/><path fill="#EDF1F9" stroke="#04005A" stroke-miterlimit="10" stroke-width=".25" d="m32.75 54.58.27 25.96c.01.66.55 1.19 1.21 1.19h1.67l2.03-23.28.28 19.53c0 .73.59 1.32 1.32 1.32l1.54.06 1.32-26.57s-1.32 1.67-3.49 2.02c-2.18.35-6.15-.23-6.15-.23Z"/><path fill="#EDF1F9" d="M41.73 41.28c-.1 2.11-.25 4.07-.25 4.07.08 4.06 1.21 8.05 1.21 8.05s-.52 1.39-4.43 2.9c-4.29 1.66-5.79-1.74-5.79-1.74s-.16-3.03.37-7.68h.01l-.12-5.38s-.12-.7.39-2.08c.51-1.38 3.27-3.15 3.27-3.15l.43-.06 1.51-.97"/><path stroke="#04005A" stroke-miterlimit="10" stroke-width=".25" d="M41.73 41.28c-.1 2.11-.25 4.07-.25 4.07.08 4.06 1.21 8.05 1.21 8.05s-.52 1.39-4.43 2.9c-4.29 1.66-5.79-1.74-5.79-1.74s-.16-3.03.37-7.68h.01l-.12-5.38s-.12-.7.39-2.08c.51-1.38 3.27-3.15 3.27-3.15l.43-.06 1.51-.97"/><path fill="#F9E8D8" stroke="#000056" stroke-miterlimit="10" stroke-width=".25" d="M36.27 34.89s.19 1.02 0 1.71 1.01 1.29 2.09 1.23c1.08-.06 1.01-.72 1.04-1.54.03-.82-3.13-1.4-3.13-1.4Z"/><path fill="#F9E8D8" d="M37.61 36.36s1.08.78 1.72.42c1.12-.63 1.49-3.19 1.02-4.71s-3.8-1.05-3.8-1.05l-.43 3.8"/><path stroke="#000056" stroke-miterlimit="10" stroke-width=".25" d="M37.61 36.36s1.08.78 1.72.42c1.12-.63 1.49-3.19 1.02-4.71s-3.8-1.05-3.8-1.05l-.43 3.8"/><path fill="#04005A" d="m36.58 33.57.27.76.34.15v-1.81s.44.64 1.53.82c1.42.23 2.38-.87 2.38-.87s.1-1.17-1.28-1.83c-.83-.4-2.01-1.19-3.18-.59-1.17.6-.78 1.11-.78 1.11s-1.12.47-.28 2.73c.39 1.04.83 1.44.83 1.44l-.09-1.58.27-.33h-.01Z"/><path fill="#000056" stroke="#04005A" stroke-miterlimit="10" stroke-width=".25" d="M40.47 79.41s.56 1.14 1.22 1.56c2.43 1.53 1.97 1.64 2.04 1.94.12.53-1.53.31-2.23-.03-2.23-1.07-2.22-1.5-2.22-1.5v.31s-.81-.31-.77-.81c.04-.5.27-1.63.27-1.63s.37.42 1.01.42.67-.26.67-.26h.01ZM35.25 81.75s.52 1.05 1.14 1.45c2.25 1.42 1.83 1.53 1.9 1.8.11.49-1.42.29-2.07-.03-2.07-1-2.06-1.39-2.06-1.39v.28s-.75-.28-.72-.75c.03-.47.26-1.51.26-1.51s.34.39.94.39c.6 0 .62-.24.62-.24h-.01Z"/><path fill="#F9E8D8" d="M36.86 34.07c-.04.2-.15.5-.15.5s-.22-.06-.31-.12c-.22-.15-.34-.54-.27-.88.07-.34.3-.48.52-.33.22.15.28.5.21.83Z"/><path fill="#EDF1F9" stroke="#04005A" stroke-miterlimit="10" stroke-width=".25" d="M40.92 28.01s1.11-1.06.43-1.92c-.68-.86-1.59-.32-1.59-.32s-.47-.93-1.68-.96c-1.52-.04-1.79 1.03-1.79 1.03s-.84-.33-1.34.56c-.5.89.43 1.6.43 1.6v3.67c2.93 1.22 5.48-.2 5.48-.2l.06-3.47v.01ZM38.18 43.16c.177 0 .32-.21.32-.47s-.143-.47-.32-.47c-.177 0-.32.21-.32.47s.143.47.32.47ZM40.04 42.55c.182 0 .33-.21.33-.47s-.148-.47-.33-.47c-.182 0-.33.21-.33.47s.148.47.33.47ZM38.18 45.6c.177 0 .32-.21.32-.47s-.143-.47-.32-.47c-.177 0-.32.21-.32.47s.143.47.32.47ZM40.04 44.99c.182 0 .33-.21.33-.47s-.148-.47-.33-.47c-.182 0-.33.21-.33.47s.148.47.33.47ZM38.18 48.18c.177 0 .32-.21.32-.47s-.143-.47-.32-.47c-.177 0-.32.21-.32.47s.143.47.32.47ZM40.04 47.57c.182 0 .33-.21.33-.47s-.148-.47-.33-.47c-.182 0-.33.21-.33.47s.148.47.33.47Z"/><path stroke="#04005A" stroke-miterlimit="10" stroke-width=".25" d="M38.63 56.13S36.7 47.5 37.07 42.8"/><path fill="#E7E5E6" stroke="#04005A" stroke-miterlimit="10" stroke-width=".25" d="M44.91 45.87s-6.87.74-10.11 3.64l-1.57-.1a.462.462 0 0 0-.48.58c.15.6.53 1.54 1.48 2.44 1.56 1.47 4.28 9.32 9.87 12.3 0 0-.22 2.34.61 2.37 0 0 .58-.88 1.38-1.67.55-.54 7.86-3.33 9.49-3.36 1.63-.03 2.08-1.82.21-2.64 0 0-3.73-9.56-7.99-12.25 0 0-.21-.83-.72-1.7s-1.41.22-1.41.22l-.74.16-.02.01Z"/><path fill="silver" stroke="#04005A" stroke-miterlimit="10" stroke-width=".25" d="M45.32 65.51c-2.09-.2 2.15-2.9 3.13-3.32.98-.42 2.71-1.69 6.1-1.86 1.71-.09 1.8.72 1.8.72s.57.6-1.81.98-5.86 1.67-6.69 2.16c-.83.49-2.54 1.32-2.54 1.32h.01Z"/><path fill="#F9E8D8" stroke="#000056" stroke-miterlimit="10" stroke-width=".25" d="M37.34 55.28c-.78-.08-1.5-1-1.5-1l-.59 1.09.59.5s.19.57.71 1.03c.51.46 1.4 1.3 1.49 1.04.03-.09-.07-.27-.21-.46.36.18.84.48.88.29.04-.16-.32-.52-.62-.78.39.12.95.4.97.18.03-.28-1.14-.96-1.14-.96s-.18-.19-.28-.32c.28-.05.97-.3.63-.47-.26-.14-.68-.13-.94-.12l.01-.02Z"/><path fill="#EDF1F9" d="M34.43 37.79c-2.26 1.3-3.34 4.95-3.9 8.42-.62 3.81 4.74 9.97 4.74 9.97l1.24-2.24s-3.36-3.86-3.24-6.28c0-1.72.68-3.48.68-3.48"/><path stroke="#04005A" stroke-miterlimit="10" stroke-width=".25" d="M34.43 37.79c-2.26 1.3-3.34 4.95-3.9 8.42-.62 3.81 4.74 9.97 4.74 9.97l1.24-2.24s-3.36-3.86-3.24-6.28c0-1.72.68-3.48.68-3.48"/><path fill="#D0D8F1" stroke="#00208A" stroke-linejoin="round" stroke-width=".25" d="M58.79 108.26 32.93 93.14v-2.3l25.86 14.85v2.57Z"/><path fill="#FDFDFD" stroke="#002484" stroke-linejoin="round" stroke-width=".25" d="M58.79 108.26 91.7 89.17v-2.36l-32.91 18.88v2.57Z"/><path fill="#EDF1F9" stroke="#04005A" stroke-miterlimit="10" stroke-width=".25" d="M58.79 105.69 91.7 86.81 66.11 72.16 32.93 90.84l25.86 14.85Z"/><path fill="#D0D8F1" stroke="#002484" stroke-linejoin="round" stroke-width=".25" d="M77.59 85.18V59.63l-2.81-1.62v25.56l2.81 1.61Z"/><path fill="#EDF1F9" d="M77.59 59.63v25.55l5.02-2.9v-25.6"/><path stroke="#04005A" stroke-miterlimit="10" stroke-width=".25" d="M77.59 59.63v25.55l5.02-2.9v-25.6"/><path fill="#EDF1F9" d="M39.51 76.31s-.84 22.32 18.41 22.42c19.25.1 20.6-8.61 21.39-22.42"/><path stroke="#04005A" stroke-miterlimit="10" stroke-width=".25" d="M39.51 76.31s-.84 22.32 18.41 22.42c19.25.1 20.6-8.61 21.39-22.42"/><path fill="#EDF1F9" stroke="#04005A" stroke-miterlimit="10" stroke-width=".25" d="M59.41 86.82c10.99 0 19.9-4.392 19.9-9.81s-8.91-9.81-19.9-9.81c-10.99 0-19.9 4.392-19.9 9.81s8.91 9.81 19.9 9.81Z"/><path fill="#D0D8F1" stroke="#000056" stroke-linejoin="round" stroke-width=".25" d="M59.41 85.83c10.648 0 19.28-3.949 19.28-8.82s-8.632-8.82-19.28-8.82c-10.648 0-19.28 3.949-19.28 8.82s8.632 8.82 19.28 8.82Z"/><path fill="#6A89D8" d="M50.22 69.39s-4.68 6.48-2.95 14.36c0 0-7.63-2.5-6.97-7.44.12-.9.81-1.96 1.46-2.68 2.7-3.01 8.46-4.23 8.46-4.23v-.01Z"/><path fill="#E7E5E6" d="M43.18 81.62s3.3-2.52 5.71-2.5c2.42.02.62.14 3-.32s.86-.43 3.65-.48c2.79-.05 1.06-.82 2.79-.04 1.73.78-.21.15 2.55.52s3.79-1.5 3.79-1.5.55-.81 2.06.41 3 .42 3.83 1.09c.83.67 1.61 1.03 2.21 1.51.6.48 1.85.5 2.27.7.42.2.82.61.82.61s-5.94 4.35-15.84 4.21c-9.9-.15-13.05-1.85-16.7-3.96"/><path stroke="#04005A" stroke-miterlimit="10" stroke-width=".25" d="M43.18 81.62s3.3-2.52 5.71-2.5c2.42.02.62.14 3-.32s.86-.43 3.65-.48c2.79-.05 1.06-.82 2.79-.04 1.73.78-.21.15 2.55.52s3.79-1.5 3.79-1.5.55-.81 2.06.41 3 .42 3.83 1.09c.83.67 1.61 1.03 2.21 1.51.6.48 1.85.5 2.27.7.42.2.82.61.82.61s-5.94 4.35-15.84 4.21c-9.9-.15-13.05-1.85-16.7-3.96"/><path stroke="#04005A" stroke-miterlimit="10" stroke-width=".25" d="M59.57 67.59v5.47s14.46 1.87 1.96 3.45-6.42 3-1.5 3.28c4.99.28 9.87 2.08-1.21 3.68"/><path fill="#EDF1F9" stroke="#04005A" stroke-miterlimit="10" stroke-width=".25" d="M61.5 70.76c0 .55-.9.99-2 .99s-1.87-.38-1.87-.93v-5.67c0-.55.89-.99 2-.99 1.11 0 1.87.32 1.87.86v5.74Z"/><path fill="#EDF1F9" d="M82.64 56.69v-4.54L57.1 62.59l-.03 4.58s.03.62.86 1.36c.83.74 2.89.46 3.87.11.78-.28 11.02-6.28 13.17-7.8 1.95-1.39 2.61-1.62 2.61-.62"/><path stroke="#04005A" stroke-miterlimit="10" stroke-width=".25" d="M82.64 56.69v-4.54L57.1 62.59l-.03 4.58s.03.62.86 1.36c.83.74 2.89.46 3.87.11.78-.28 11.02-6.28 13.17-7.8 1.95-1.39 2.61-1.62 2.61-.62"/><path fill="#EDF1F9" stroke="#04005A" stroke-miterlimit="10" stroke-width=".25" d="m57.83 63.58-.04-.02c-.9-.51-.91-1.81-.01-2.33l20.52-11.8 4.35 2.55-20.32 11.6c-1.39.8-3.1.8-4.49.01l-.01-.01Z"/><path fill="#002484" stroke="#000056" stroke-miterlimit="10" stroke-width=".25" d="M107.47 85.35c-.2-.03-.36-.07-.49-.1a.651.651 0 0 1-.49-.6l-.07-2.08s-.63-.27-.97-.2c-.29.06-.48.59-.59 1.2-.16.84-.35 2.65-.35 2.67 0 .03-.02.24-.03.32-.11.97-.11 1.13-.11 1.13s.22.28.81.34c.59.06.93-.13.93-.13l.02-.36.41.15s.14 0 1.09-.49c.95-.49 1.44-1.03 1.44-1.03s0-.63-.43-.74c-.43-.11-.42.04-1.17-.08ZM112.18 87.9c-.2-.03-.36-.07-.49-.1a.651.651 0 0 1-.49-.6l-.07-2.08s-.63-.27-.97-.2c-.29.06-.48.59-.59 1.2-.16.84-.35 2.65-.35 2.67 0 .03-.02.24-.03.32-.11.97-.11 1.13-.11 1.13s.22.28.81.34c.59.06.93-.13.93-.13l.02-.36.41.15s.14 0 1.09-.49c.95-.49 1.44-1.03 1.44-1.03s0-.63-.43-.74c-.43-.11-.42.04-1.17-.08Z"/><path fill="#667CB5" d="m112.64 64.16-.6 21.57c-.04.56-.51.94-1.07.86l-1.41-.21-1.6-17.93-.87 14.94a.99.99 0 0 1-1.16.95l-1.3-.15-.06-22.05s1.05.85 2.87 1.43 5.2.59 5.2.59Z"/><mask id="b" width="9" height="25" x="104" y="62" maskUnits="userSpaceOnUse" style="mask-type:luminance"><path fill="#fff" d="m112.64 64.16-.6 21.57c-.04.56-.51.94-1.07.86l-1.41-.21-1.6-17.93-.87 14.94a.99.99 0 0 1-1.16.95l-1.3-.15-.06-22.05s1.05.85 2.87 1.43 5.2.59 5.2.59Z"/></mask><g mask="url(#b)"><path fill="#000056" d="M97.82 61.9c-.2.17 3.62 7.18 3.86 7.12.12-.03 11.99-4.15 11.99-4.15l-8.54-8.57-7.31 5.6Z" opacity=".4"/></g><path stroke="#002484" stroke-linejoin="round" stroke-width=".25" d="m112.64 64.16-.6 21.57c-.04.56-.51.94-1.07.86l-1.41-.21-1.6-17.93-.87 14.94a.99.99 0 0 1-1.16.95l-1.3-.15-.06-22.05s1.05.85 2.87 1.43 5.2.59 5.2.59Z"/><path fill="#EDF1F9" d="M112.88 51.44c-.23-.79-1.07-1.27-1.9-1.75-.84-.59-1.66-1.02-1.66-1.02l-1.1-.17c-.92.36-3.3 2.79-4.14 4.46-.84 1.67-1.6 5.43-1.01 5.64.59.21 1.01.36 1.74.39m.12-1.8s-.06.78-.2 3.45c-.13 2.61-1.47 3.67 2.57 4.36 4.04.68 6.46-1.27 6.46-1.27s-1.06-3.61-1.28-6.56l.39-5.72"/><path stroke="#000056" stroke-miterlimit="10" stroke-width=".25" d="M112.88 51.44c-.23-.79-1.07-1.27-1.9-1.75-.84-.59-1.66-1.02-1.66-1.02l-1.1-.17c-.92.36-3.3 2.79-4.14 4.46-.84 1.67-1.6 5.43-1.01 5.64.59.21 1.01.36 1.74.39m.12-1.8s-.06.78-.2 3.45c-.13 2.61-1.47 3.67 2.57 4.36 4.04.68 6.46-1.27 6.46-1.27s-1.06-3.61-1.28-6.56l.39-5.72M104.93 57.19l.27-2.45"/><path fill="#CED7F2" stroke="#04005A" stroke-miterlimit="10" stroke-width=".25" d="M106.25 48.39c-1.5 1.69-.61 4.13 1.19 4.23 1.42.08 4.18-2.5 4.18-2.5s-.19-1.47-2-1.53c-1.81-.06-3.1.23-3.37-.2Z"/><path fill="#CED7F2" stroke="#04005A" stroke-miterlimit="10" stroke-width=".25" d="M105.79 47.21c-1.34 3.31 1.3 5.14 4.25 2.64.78-.66 1.42-1.01 1.48-2.02.02-.33-.47-1.04-.55-1.78-.06-1.58-1.16-3.41-3.02-2.78-2.09.7-1.93 2.05-2.17 3.94h.01Z"/><path fill="#002484" d="m112.03 64.47 2.31 1.49 1.7-7.26-2.31-1.48-1.7 7.25Z"/><path fill="#2765FF" stroke="#063ABC" stroke-miterlimit="10" stroke-width=".25" d="m112.24 64.75 2.35 1.25 1.87-8.07-2.36-1.25-1.86 8.07Z"/><path fill="#E9B98D" stroke="#04005A" stroke-miterlimit="10" stroke-width=".25" d="M114.67 61.37c-.53.46-1.1.22-1.1.22l-.3 1.25h.44s.04.61.43.63c.39.02.84-.12 1.01-.24.17-.12.21-.38.21-.38s.29-.24.31-.43c.01-.15-.05-.27-.05-.27s.15-.22.16-.37c.01-.15.08-.38-.25-.14s-.5-.09-.48-.21c.19-.23.51-.68.27-.59-.19.07-.47.35-.65.54v-.01Z"/><path fill="#EDF1F9" d="m112.81 51.25.07.19v6.02c0 2.43 1.37 3.83 1.37 3.83l-.53 1.63s-3.13-.01-2.95-4.66v-2.98"/><path stroke="#000056" stroke-miterlimit="10" stroke-width=".25" d="m112.81 51.25.07.19v6.02c0 2.43 1.37 3.83 1.37 3.83l-.53 1.63s-3.13-.01-2.95-4.66v-2.98"/><path fill="#F5C814" d="M111.19 44.43c1.2.26 1.52.77 1.04 1.43-.76 1.05-2.29 2.02-3.33 2.36-1.04.34-2.25.63-3.47.13-.88-.36-.95-1.82-.6-2.08 0 0-.17-1.56.75-2.32.92-.76 1.65-1.42 3.08-1.32 1.62.11 1.69.3 2 .55.99.83.1 1.32.96 2.2"/><path stroke="#04005A" stroke-miterlimit="10" stroke-width=".25" d="M111.19 44.43c1.2.26 1.52.77 1.04 1.43-.76 1.05-2.29 2.02-3.33 2.36-1.04.34-2.25.63-3.47.13-.88-.36-.95-1.82-.6-2.08 0 0-.17-1.56.75-2.32.92-.76 1.65-1.42 3.08-1.32 1.62.11 1.69.3 2 .55.99.83.1 1.32.96 2.2"/><path fill="#F5C814" stroke="#04005A" stroke-miterlimit="10" stroke-width=".25" d="M108.13 42.64s2.21-.1 1.04.7c-1.17.8-1.82.91-2.39 1.95-.57 1.04-.68 1-1.17.88-.53-.13-.53-1.02 0-1.84.53-.82 1.19-1.46 2.51-1.69h.01Z"/><path fill="#F5C814" stroke="#04005A" stroke-miterlimit="10" stroke-width=".25" d="M104.83 46.08s.87 1.37 3.12.44c2.25-.93 1.76-.92 2.02-.56s.15.86-.18 1.04c-.33.18-1.78.94-2.89 1.08-.85.11-2.17-.35-2.28-.72-.11-.37-.33-1.18.19-1.29l.02.01Z"/><path fill="#F57118" d="M58.65 47.64a.89.89 0 1 0 0-1.78.89.89 0 0 0 0 1.78ZM53.12 45.66a.89.89 0 1 0 0-1.78.89.89 0 0 0 0 1.78ZM62.76 46.55a.89.89 0 1 0 0-1.78.89.89 0 0 0 0 1.78ZM54.83 52.75a.89.89 0 1 0 0-1.78.89.89 0 0 0 0 1.78ZM57.76 44.77a.89.89 0 1 0 0-1.78.89.89 0 0 0 0 1.78ZM64.84 50.88a.89.89 0 1 0 0-1.78.89.89 0 0 0 0 1.78ZM55.44 48.72a.61.61 0 1 0 0-1.22.61.61 0 0 0 0 1.22ZM50.97 49.33a.61.61 0 1 0 0-1.22.61.61 0 0 0 0 1.22ZM59.51 58.26a.61.61 0 1 0 0-1.22.61.61 0 0 0 0 1.22ZM50.36 54.18a.61.61 0 1 0 0-1.22.61.61 0 0 0 0 1.22ZM60.45 49.94a.61.61 0 1 0 0-1.22.61.61 0 0 0 0 1.22ZM58.65 53.57a.61.61 0 1 0 0-1.22.61.61 0 0 0 0 1.22ZM62.76 54.18a.61.61 0 1 0 0-1.22.61.61 0 0 0 0 1.22ZM49.94 45.01a.61.61 0 1 0 0-1.22.61.61 0 0 0 0 1.22ZM54.83 42.53a.61.61 0 1 0 0-1.22.61.61 0 0 0 0 1.22ZM52.85 57.04a.61.61 0 1 0 0-1.22.61.61 0 0 0 0 1.22ZM60.73 43.14a.61.61 0 1 0 0-1.22.61.61 0 0 0 0 1.22ZM45.42 75.04a.89.89 0 1 0 0-1.78.89.89 0 0 0 0 1.78ZM56.87 78.98a.89.89 0 1 0 0-1.78.89.89 0 0 0 0 1.78ZM64.86 68.81a.89.89 0 1 0 0-1.78.89.89 0 0 0 0 1.78ZM44.32 63.84a.61.61 0 1 0 0-1.22.61.61 0 0 0 0 1.22ZM63.37 84.02a.61.61 0 1 0 0-1.22.61.61 0 0 0 0 1.22ZM54.83 70.59a.61.61 0 1 0 0-1.22.61.61 0 0 0 0 1.22ZM50.97 85.56a.61.61 0 1 0 0-1.22.61.61 0 0 0 0 1.22Z"/></svg>